<svg xmlns="http://www.w3.org/2000/svg" xmlns:xlink="http://www.w3.org/1999/xlink" width="500" zoomAndPan="magnify" viewBox="0 0 375 374.999991" height="500" preserveAspectRatio="xMidYMid meet" version="1.0"><defs><clipPath id="9c6afd490c"><path d="M 18.371094 4.710938 L 356.621094 4.710938 L 356.621094 369.960938 L 18.371094 369.960938 Z M 18.371094 4.710938 " clip-rule="nonzero"/></clipPath></defs><g clip-path="url(#9c6afd490c)"><path fill="#767dfd" d="M 355.292969 243.917969 C 354.988281 243.183594 354.636719 242.476562 354.226562 241.792969 C 353.820312 241.113281 353.367188 240.464844 352.863281 239.847656 C 352.359375 239.234375 351.816406 238.660156 351.226562 238.128906 C 350.640625 237.59375 350.015625 237.105469 349.355469 236.664062 C 348.695312 236.222656 348.003906 235.832031 347.289062 235.496094 C 346.570312 235.15625 345.828125 234.871094 345.070312 234.640625 C 344.308594 234.410156 343.535156 234.238281 342.75 234.121094 C 341.964844 234.007812 341.175781 233.949219 340.378906 233.949219 L 241.855469 233.886719 C 239.714844 233.890625 237.65625 234.300781 235.679688 235.117188 C 233.703125 235.933594 231.953125 237.097656 230.4375 238.601562 L 211.160156 257.859375 L 210.570312 258.507812 C 199.28125 271.339844 174.328125 280.289062 148.460938 280.761719 C 133.804688 281.027344 106.992188 278.703125 87.855469 260.707031 L 67.109375 239.960938 C 66.25 239.097656 65.410156 238.214844 64.59375 237.3125 C 63.777344 236.410156 62.984375 235.488281 62.210938 234.546875 C 61.4375 233.605469 60.691406 232.648438 59.964844 231.667969 C 59.242188 230.691406 58.539062 229.695312 57.863281 228.683594 C 57.1875 227.671875 56.539062 226.644531 55.914062 225.597656 C 55.289062 224.554688 54.6875 223.496094 54.113281 222.421875 C 53.542969 221.347656 52.996094 220.261719 52.472656 219.160156 C 51.953125 218.0625 51.460938 216.949219 50.996094 215.824219 C 50.53125 214.699219 50.09375 213.5625 49.683594 212.417969 C 49.273438 211.273438 48.890625 210.117188 48.539062 208.953125 C 48.183594 207.789062 47.859375 206.613281 47.566406 205.433594 C 47.269531 204.253906 47.003906 203.066406 46.765625 201.875 C 46.527344 200.679688 46.320312 199.480469 46.140625 198.277344 C 45.964844 197.074219 45.816406 195.867188 45.695312 194.65625 C 45.578125 193.445312 45.488281 192.230469 45.425781 191.015625 C 45.367188 189.800781 45.339844 188.582031 45.339844 187.367188 C 45.339844 186.148438 45.367188 184.933594 45.425781 183.71875 C 45.488281 182.503906 45.578125 181.289062 45.695312 180.078125 C 45.816406 178.867188 45.964844 177.660156 46.140625 176.457031 C 46.320312 175.253906 46.527344 174.054688 46.765625 172.859375 C 47.003906 171.667969 47.269531 170.480469 47.566406 169.296875 C 47.859375 168.117188 48.183594 166.945312 48.539062 165.78125 C 48.890625 164.617188 49.273438 163.460938 49.683594 162.316406 C 50.09375 161.167969 50.53125 160.035156 50.996094 158.910156 C 51.460938 157.785156 51.953125 156.671875 52.472656 155.570312 C 52.996094 154.472656 53.542969 153.382812 54.113281 152.3125 C 54.6875 151.238281 55.289062 150.179688 55.914062 149.132812 C 56.539062 148.089844 57.1875 147.0625 57.863281 146.050781 C 58.539062 145.039062 59.242188 144.042969 59.964844 143.0625 C 60.691406 142.085938 61.4375 141.125 62.210938 140.183594 C 62.984375 139.242188 63.777344 138.320312 64.59375 137.417969 C 65.410156 136.515625 66.25 135.632812 67.109375 134.773438 L 85.105469 116.78125 C 122.820312 79.171875 180.734375 86.449219 211.175781 116.855469 L 230.3125 135.988281 C 231.824219 137.5 233.566406 138.667969 235.539062 139.484375 C 237.515625 140.300781 239.574219 140.707031 241.710938 140.703125 L 340.378906 140.761719 C 341.175781 140.765625 341.964844 140.707031 342.753906 140.589844 C 343.539062 140.476562 344.3125 140.304688 345.074219 140.074219 C 345.835938 139.84375 346.574219 139.558594 347.292969 139.222656 C 348.011719 138.882812 348.703125 138.492188 349.363281 138.050781 C 350.023438 137.609375 350.652344 137.125 351.238281 136.589844 C 351.828125 136.058594 352.375 135.484375 352.878906 134.871094 C 353.386719 134.257812 353.839844 133.609375 354.25 132.929688 C 354.660156 132.246094 355.015625 131.539062 355.320312 130.804688 C 355.625 130.070312 355.875 129.320312 356.066406 128.550781 C 356.257812 127.777344 356.394531 127 356.472656 126.207031 C 356.550781 125.417969 356.570312 124.625 356.53125 123.832031 C 356.492188 123.039062 356.394531 122.253906 356.238281 121.472656 C 356.082031 120.695312 355.871094 119.933594 355.601562 119.183594 C 355.332031 118.4375 355.011719 117.714844 354.636719 117.011719 C 354.261719 116.3125 353.835938 115.644531 353.363281 115.007812 C 352.886719 114.371094 352.367188 113.769531 351.804688 113.210938 L 272.886719 34.375 C 271.714844 33.203125 270.511719 32.058594 269.285156 30.945312 C 268.054688 29.832031 266.800781 28.75 265.515625 27.699219 C 264.234375 26.648438 262.925781 25.628906 261.59375 24.640625 C 260.261719 23.652344 258.90625 22.699219 257.527344 21.777344 C 256.148438 20.859375 254.746094 19.972656 253.324219 19.117188 C 251.902344 18.265625 250.457031 17.449219 248.996094 16.667969 C 247.53125 15.886719 246.050781 15.140625 244.550781 14.433594 C 243.050781 13.722656 241.535156 13.054688 240.003906 12.417969 C 238.46875 11.785156 236.921875 11.1875 235.363281 10.628906 C 233.800781 10.070312 232.226562 9.550781 230.636719 9.070312 C 229.050781 8.589844 227.453125 8.148438 225.84375 7.746094 C 224.234375 7.339844 222.613281 6.976562 220.988281 6.65625 C 219.359375 6.332031 217.726562 6.046875 216.085938 5.804688 C 214.445312 5.5625 212.800781 5.359375 211.148438 5.195312 C 209.496094 5.035156 207.84375 4.910156 206.1875 4.832031 C 204.53125 4.75 202.871094 4.707031 201.210938 4.707031 C 199.554688 4.707031 197.894531 4.75 196.238281 4.832031 C 194.582031 4.910156 192.929688 5.035156 191.277344 5.195312 C 189.625 5.359375 187.980469 5.5625 186.339844 5.804688 C 184.699219 6.046875 183.0625 6.332031 181.4375 6.65625 C 179.808594 6.976562 178.191406 7.339844 176.582031 7.746094 C 174.972656 8.148438 173.375 8.589844 171.789062 9.070312 C 170.199219 9.550781 168.625 10.070312 167.0625 10.628906 C 165.5 11.1875 163.953125 11.785156 162.421875 12.417969 C 160.890625 13.054688 159.371094 13.722656 157.875 14.433594 C 156.375 15.140625 154.890625 15.886719 153.429688 16.667969 C 151.964844 17.449219 150.523438 18.265625 149.101562 19.117188 C 147.679688 19.972656 146.277344 20.859375 144.898438 21.777344 C 143.519531 22.699219 142.164062 23.652344 140.828125 24.640625 C 139.496094 25.628906 138.191406 26.648438 136.90625 27.699219 C 135.625 28.75 134.371094 29.832031 133.140625 30.945312 C 131.910156 32.058594 130.710938 33.203125 129.539062 34.375 L 66.058594 97.792969 L 66.003906 97.851562 L 48.082031 115.757812 C 8.566406 155.238281 8.566406 219.488281 48.082031 258.96875 L 65.914062 276.753906 C 66.941406 277.835938 67.996094 278.890625 69.082031 279.917969 L 129.558594 340.339844 C 130.730469 341.507812 131.933594 342.648438 133.164062 343.761719 C 134.394531 344.871094 135.648438 345.953125 136.933594 347 C 138.214844 348.050781 139.523438 349.070312 140.859375 350.054688 C 142.191406 351.039062 143.546875 351.992188 144.925781 352.910156 C 146.304688 353.832031 147.707031 354.714844 149.132812 355.566406 C 150.554688 356.417969 151.996094 357.230469 153.460938 358.011719 C 154.921875 358.792969 156.40625 359.535156 157.90625 360.242188 C 159.402344 360.949219 160.921875 361.621094 162.453125 362.253906 C 163.984375 362.886719 165.53125 363.480469 167.09375 364.039062 C 168.65625 364.59375 170.230469 365.113281 171.816406 365.59375 C 173.402344 366.074219 175 366.515625 176.609375 366.917969 C 178.21875 367.320312 179.835938 367.679688 181.464844 368.003906 C 183.089844 368.328125 184.722656 368.609375 186.363281 368.851562 C 188.003906 369.09375 189.648438 369.296875 191.300781 369.460938 C 192.949219 369.621094 194.605469 369.742188 196.261719 369.824219 C 197.917969 369.90625 199.574219 369.945312 201.230469 369.945312 C 202.890625 369.945312 204.546875 369.90625 206.203125 369.824219 C 207.859375 369.742188 209.511719 369.621094 211.164062 369.460938 C 212.8125 369.296875 214.460938 369.09375 216.101562 368.851562 C 217.742188 368.609375 219.375 368.328125 221 368.003906 C 222.625 367.679688 224.246094 367.320312 225.851562 366.917969 C 227.460938 366.515625 229.058594 366.074219 230.648438 365.59375 C 232.234375 365.113281 233.808594 364.59375 235.371094 364.039062 C 236.933594 363.480469 238.480469 362.886719 240.011719 362.253906 C 241.542969 361.621094 243.058594 360.949219 244.558594 360.242188 C 246.058594 359.535156 247.539062 358.792969 249.003906 358.011719 C 250.464844 357.230469 251.910156 356.417969 253.332031 355.566406 C 254.757812 354.714844 256.15625 353.832031 257.539062 352.910156 C 258.917969 351.992188 260.273438 351.039062 261.605469 350.054688 C 262.9375 349.070312 264.246094 348.050781 265.53125 347 C 266.8125 345.953125 268.070312 344.871094 269.300781 343.761719 C 270.53125 342.648438 271.734375 341.507812 272.90625 340.339844 L 351.804688 261.492188 C 352.367188 260.929688 352.886719 260.332031 353.359375 259.695312 C 353.832031 259.058594 354.257812 258.390625 354.632812 257.691406 C 355.007812 256.992188 355.328125 256.269531 355.59375 255.523438 C 355.863281 254.773438 356.074219 254.011719 356.226562 253.234375 C 356.382812 252.457031 356.476562 251.671875 356.515625 250.878906 C 356.554688 250.085938 356.535156 249.296875 356.453125 248.507812 C 356.375 247.714844 356.238281 246.9375 356.042969 246.167969 C 355.847656 245.398438 355.597656 244.648438 355.292969 243.917969 Z M 148.566406 53.378906 C 149.425781 52.519531 150.308594 51.679688 151.210938 50.859375 C 152.113281 50.042969 153.035156 49.25 153.980469 48.476562 C 154.921875 47.703125 155.882812 46.957031 156.859375 46.230469 C 157.839844 45.503906 158.835938 44.804688 159.847656 44.128906 C 160.859375 43.453125 161.890625 42.800781 162.933594 42.175781 C 163.980469 41.550781 165.039062 40.949219 166.113281 40.375 C 167.1875 39.800781 168.277344 39.253906 169.378906 38.734375 C 170.480469 38.214844 171.59375 37.71875 172.71875 37.253906 C 173.84375 36.789062 174.980469 36.351562 176.128906 35.941406 C 177.273438 35.53125 178.433594 35.148438 179.597656 34.796875 C 180.761719 34.441406 181.9375 34.117188 183.121094 33.820312 C 184.300781 33.527344 185.488281 33.257812 186.683594 33.023438 C 187.878906 32.785156 189.078125 32.578125 190.285156 32.398438 C 191.492188 32.21875 192.699219 32.070312 193.910156 31.949219 C 195.125 31.832031 196.339844 31.742188 197.554688 31.683594 C 198.773438 31.621094 199.992188 31.59375 201.210938 31.59375 C 202.425781 31.59375 203.644531 31.621094 204.863281 31.683594 C 206.078125 31.742188 207.292969 31.832031 208.507812 31.949219 C 209.71875 32.070312 210.929688 32.21875 212.132812 32.398438 C 213.339844 32.578125 214.539062 32.785156 215.734375 33.023438 C 216.929688 33.257812 218.117188 33.527344 219.300781 33.820312 C 220.480469 34.117188 221.65625 34.441406 222.820312 34.796875 C 223.988281 35.148438 225.144531 35.53125 226.289062 35.941406 C 227.4375 36.351562 228.574219 36.789062 229.699219 37.253906 C 230.824219 37.71875 231.9375 38.214844 233.039062 38.734375 C 234.140625 39.253906 235.230469 39.800781 236.304688 40.375 C 237.378906 40.949219 238.4375 41.550781 239.484375 42.175781 C 240.527344 42.800781 241.558594 43.453125 242.570312 44.128906 C 243.585938 44.804688 244.582031 45.503906 245.558594 46.230469 C 246.539062 46.957031 247.496094 47.703125 248.441406 48.476562 C 249.382812 49.25 250.304688 50.042969 251.207031 50.859375 C 252.109375 51.679688 252.992188 52.519531 253.851562 53.378906 L 314.386719 113.859375 L 246.191406 113.8125 L 230.207031 97.84375 C 207.167969 74.824219 172.046875 61.992188 137.027344 64.898438 Z M 253.847656 321.34375 C 252.984375 322.203125 252.101562 323.039062 251.199219 323.855469 C 250.292969 324.671875 249.371094 325.464844 248.429688 326.238281 C 247.488281 327.007812 246.527344 327.753906 245.546875 328.480469 C 244.570312 329.203125 243.574219 329.902344 242.558594 330.578125 C 241.546875 331.253906 240.515625 331.902344 239.472656 332.527344 C 238.425781 333.152344 237.367188 333.75 236.292969 334.324219 C 235.214844 334.898438 234.128906 335.445312 233.027344 335.964844 C 231.925781 336.484375 230.8125 336.976562 229.6875 337.441406 C 228.5625 337.90625 227.425781 338.34375 226.277344 338.753906 C 225.128906 339.160156 223.972656 339.542969 222.808594 339.894531 C 221.644531 340.25 220.46875 340.570312 219.289062 340.867188 C 218.105469 341.164062 216.917969 341.429688 215.722656 341.664062 C 214.527344 341.902344 213.328125 342.109375 212.125 342.289062 C 210.917969 342.46875 209.710938 342.617188 208.496094 342.734375 C 207.285156 342.855469 206.070312 342.945312 204.855469 343.003906 C 203.636719 343.0625 202.421875 343.09375 201.203125 343.09375 C 199.984375 343.09375 198.765625 343.0625 197.550781 343.003906 C 196.335938 342.945312 195.121094 342.855469 193.90625 342.734375 C 192.695312 342.617188 191.488281 342.46875 190.28125 342.289062 C 189.078125 342.109375 187.878906 341.902344 186.683594 341.664062 C 185.488281 341.429688 184.300781 341.164062 183.117188 340.867188 C 181.9375 340.570312 180.761719 340.25 179.597656 339.894531 C 178.429688 339.542969 177.273438 339.160156 176.128906 338.753906 C 174.980469 338.34375 173.84375 337.90625 172.71875 337.441406 C 171.59375 336.976562 170.480469 336.484375 169.378906 335.964844 C 168.277344 335.445312 167.1875 334.898438 166.113281 334.324219 C 165.039062 333.75 163.980469 333.152344 162.933594 332.527344 C 161.890625 331.902344 160.859375 331.253906 159.847656 330.578125 C 158.832031 329.902344 157.835938 329.203125 156.859375 328.480469 C 155.878906 327.753906 154.917969 327.007812 153.976562 326.238281 C 153.035156 325.464844 152.109375 324.671875 151.207031 323.855469 C 150.304688 323.039062 149.421875 322.203125 148.558594 321.34375 L 134.375 307.179688 C 139.230469 307.574219 144.09375 307.726562 148.960938 307.632812 C 182.238281 307.023438 214.160156 294.851562 230.488281 276.589844 L 246.316406 260.769531 L 314.425781 260.816406 Z M 120.179688 177.398438 C 119.527344 178.054688 118.941406 178.765625 118.429688 179.535156 C 117.917969 180.304688 117.484375 181.117188 117.128906 181.972656 C 116.777344 182.828125 116.507812 183.707031 116.328125 184.617188 C 116.148438 185.523438 116.058594 186.4375 116.058594 187.363281 C 116.058594 188.289062 116.148438 189.203125 116.328125 190.109375 C 116.507812 191.019531 116.777344 191.898438 117.128906 192.753906 C 117.484375 193.609375 117.917969 194.421875 118.429688 195.191406 C 118.941406 195.960938 119.527344 196.671875 120.179688 197.328125 L 186.972656 266.734375 C 177.5625 270.523438 167.804688 272.90625 157.707031 273.882812 L 101.132812 216.3125 C 100.183594 215.363281 99.28125 214.371094 98.429688 213.332031 C 97.574219 212.296875 96.777344 211.222656 96.027344 210.105469 C 95.28125 208.988281 94.589844 207.839844 93.957031 206.65625 C 93.324219 205.472656 92.75 204.261719 92.234375 203.023438 C 91.71875 201.785156 91.269531 200.523438 90.878906 199.238281 C 90.488281 197.953125 90.160156 196.652344 89.898438 195.335938 C 89.636719 194.019531 89.4375 192.695312 89.308594 191.359375 C 89.175781 190.023438 89.109375 188.6875 89.109375 187.34375 C 89.109375 186 89.175781 184.664062 89.308594 183.328125 C 89.4375 181.992188 89.636719 180.667969 89.898438 179.351562 C 90.160156 178.035156 90.488281 176.734375 90.878906 175.449219 C 91.269531 174.164062 91.71875 172.902344 92.234375 171.664062 C 92.75 170.425781 93.324219 169.214844 93.957031 168.03125 C 94.589844 166.847656 95.28125 165.699219 96.027344 164.582031 C 96.777344 163.46875 97.574219 162.390625 98.429688 161.355469 C 99.28125 160.316406 100.183594 159.324219 101.132812 158.375 L 160.230469 98.5 C 170.148438 100 179.53125 103.105469 188.382812 107.824219 Z M 120.179688 177.398438 " fill-opacity="1" fill-rule="nonzero"/></g></svg>