<svg xmlns="http://www.w3.org/2000/svg" xmlns:xlink="http://www.w3.org/1999/xlink" width="450" zoomAndPan="magnify" viewBox="0 0 337.5 337.500003" height="450" preserveAspectRatio="xMidYMid meet" version="1.0"><defs><clipPath id="8c25796529"><path d="M 135 104 L 166 104 L 166 141 L 135 141 Z M 135 104 " clip-rule="nonzero"/></clipPath><clipPath id="ef3f9d31f6"><path d="M 152.351562 104.914062 L 165.589844 127.578125 L 144.21875 140.0625 L 130.980469 117.394531 Z M 152.351562 104.914062 " clip-rule="nonzero"/></clipPath><clipPath id="dc38a3d837"><path d="M 177.917969 198.25 L 130.636719 117.296875 L 210.941406 70.394531 L 258.222656 151.347656 Z M 177.917969 198.25 " clip-rule="nonzero"/></clipPath><clipPath id="080023a38f"><path d="M 203.320312 127.351562 C 207.925781 131.816406 216.242188 141.195312 216.324219 141.289062 C 219.519531 144.917969 223.53125 145.625 226.460938 146.144531 C 227.066406 146.253906 227.644531 146.355469 228.171875 146.476562 C 229.316406 146.734375 230.328125 147.488281 230.945312 148.546875 L 238.707031 161.839844 C 238.914062 162.191406 239.363281 162.308594 239.71875 162.105469 C 240.070312 161.898438 240.1875 161.445312 239.980469 161.09375 L 232.21875 147.800781 C 231.394531 146.390625 230.039062 145.382812 228.496094 145.035156 C 227.945312 144.910156 227.347656 144.804688 226.714844 144.691406 C 223.851562 144.183594 220.285156 143.554688 217.425781 140.3125 C 217.34375 140.21875 208.992188 130.796875 204.355469 126.300781 C 204.34375 126.289062 203.082031 124.976562 203.144531 123.734375 C 203.167969 123.253906 203.394531 122.84375 203.835938 122.476562 C 204.878906 121.609375 206.472656 121.8125 207.507812 122.457031 C 210.308594 124.203125 215.441406 127.300781 218.351562 128.398438 C 219.410156 128.796875 220.589844 128.332031 221.09375 127.320312 C 221.945312 125.605469 222.058594 123.609375 221.402344 121.847656 C 220.546875 119.542969 218.4375 114.722656 213.960938 108.355469 C 212.675781 106.527344 210.976562 104.984375 209.042969 103.890625 C 205.460938 101.863281 199.414062 97.726562 199.164062 92.828125 C 199.132812 92.253906 199.378906 91.71875 199.835938 91.355469 C 200.3125 90.976562 200.949219 90.855469 201.535156 91.023438 C 203.167969 91.5 206.046875 92.628906 210.035156 94.1875 C 212.550781 95.175781 215.40625 96.292969 218.652344 97.523438 C 219.707031 97.921875 220.671875 98.761719 221.519531 100.019531 C 222.902344 102.066406 225.445312 105.609375 228.667969 110.097656 C 232.929688 116.039062 238.230469 123.429688 242.898438 130.234375 L 256.566406 151.441406 C 256.789062 151.785156 257.246094 151.886719 257.589844 151.664062 C 257.925781 151.449219 258.027344 151.011719 257.828125 150.671875 C 257.824219 150.660156 257.816406 150.652344 257.8125 150.644531 L 244.132812 129.417969 C 239.441406 122.582031 234.132812 115.183594 229.867188 109.238281 C 226.65625 104.761719 224.117188 101.222656 222.746094 99.191406 C 221.726562 97.679688 220.523438 96.652344 219.175781 96.140625 C 215.9375 94.914062 213.089844 93.796875 210.574219 92.8125 C 206.550781 91.238281 203.644531 90.101562 201.949219 89.605469 C 200.90625 89.300781 199.773438 89.523438 198.921875 90.195312 C 198.085938 90.859375 197.636719 91.84375 197.6875 92.898438 C 197.710938 93.324219 197.78125 93.742188 197.871094 94.15625 C 197.066406 94.761719 196.582031 95.691406 196.574219 96.707031 C 196.535156 102.316406 202.753906 107.183594 206.464844 109.582031 C 208.148438 110.671875 209.597656 112.152344 210.660156 113.863281 C 213.984375 119.230469 215.765625 123.441406 216.679688 126.027344 C 213.914062 124.648438 210.421875 122.535156 208.292969 121.203125 C 206.53125 120.105469 204.308594 120.160156 202.894531 121.339844 C 202.230469 121.890625 201.847656 122.554688 201.726562 123.308594 C 200.984375 123.921875 200.550781 124.660156 200.472656 125.523438 C 200.296875 127.476562 202 129.242188 202.074219 129.320312 C 206.578125 133.890625 214.675781 143.460938 214.777344 143.582031 C 218.460938 147.554688 221.082031 148.824219 224.113281 149.585938 C 225.234375 149.867188 226.539062 151.191406 227.167969 152.324219 L 234.246094 164.445312 C 234.453125 164.796875 234.902344 164.914062 235.253906 164.710938 C 235.605469 164.503906 235.726562 164.050781 235.519531 163.699219 L 228.449219 151.59375 C 228.425781 151.550781 228.402344 151.507812 228.378906 151.464844 C 227.570312 150.085938 226.007812 148.539062 224.472656 148.152344 C 221.703125 147.457031 219.296875 146.28125 215.882812 142.601562 C 215.804688 142.503906 207.667969 132.894531 203.132812 128.289062 C 202.769531 127.910156 201.847656 126.707031 201.945312 125.652344 C 201.957031 125.554688 201.980469 125.460938 202.007812 125.371094 C 202.472656 126.480469 203.261719 127.292969 203.320312 127.351562 Z M 213.03125 114.945312 C 212.679688 114.339844 212.308594 113.722656 211.914062 113.085938 C 210.738281 111.191406 209.132812 109.550781 207.265625 108.34375 C 203.808594 106.109375 198.015625 101.625 198.050781 96.71875 C 198.050781 96.351562 198.171875 96.019531 198.371094 95.734375 C 200.179688 100.003906 205.144531 103.378906 208.316406 105.171875 C 210.0625 106.160156 211.59375 107.554688 212.753906 109.199219 C 217.136719 115.433594 219.1875 120.121094 220.019531 122.359375 C 220.535156 123.742188 220.445312 125.308594 219.773438 126.65625 C 219.605469 126.992188 219.21875 127.144531 218.871094 127.011719 C 218.757812 126.972656 218.636719 126.921875 218.515625 126.871094 C 217.847656 124.710938 216.292969 120.53125 213.03125 114.945312 Z M 186.292969 139.414062 C 191.914062 136.132812 193.816406 128.882812 190.53125 123.253906 C 187.242188 117.628906 179.996094 115.722656 174.371094 119.003906 C 168.75 122.289062 166.847656 129.539062 170.136719 135.167969 C 173.421875 140.792969 180.671875 142.699219 186.292969 139.414062 Z M 171.410156 134.421875 C 168.535156 129.496094 170.195312 123.15625 175.117188 120.28125 C 180.039062 117.40625 186.378906 119.074219 189.253906 124 C 192.132812 128.921875 190.46875 135.265625 185.546875 138.140625 C 180.628906 141.015625 174.285156 139.347656 171.410156 134.421875 Z M 184.605469 130.136719 C 184.253906 130.34375 184.132812 130.792969 184.339844 131.148438 C 184.546875 131.5 185 131.617188 185.351562 131.414062 C 187.042969 130.425781 187.640625 128.222656 186.855469 126.257812 L 187.714844 125.753906 C 188.066406 125.546875 188.1875 125.097656 187.980469 124.742188 C 187.773438 124.390625 187.324219 124.273438 186.972656 124.476562 L 186.109375 124.980469 C 184.78125 123.332031 182.570312 122.769531 180.878906 123.757812 C 178.90625 124.910156 178.386719 126.769531 179.367188 128.921875 L 175.109375 131.40625 C 174.707031 130.167969 175.0625 128.867188 176.058594 128.285156 C 176.410156 128.078125 176.53125 127.628906 176.324219 127.273438 C 176.117188 126.921875 175.667969 126.804688 175.316406 127.007812 C 173.625 127.996094 173.027344 130.199219 173.808594 132.164062 L 172.949219 132.667969 C 172.597656 132.871094 172.476562 133.324219 172.683594 133.675781 C 172.890625 134.03125 173.34375 134.148438 173.695312 133.941406 L 174.554688 133.441406 C 175.882812 135.089844 178.09375 135.648438 179.785156 134.664062 C 181.570312 133.621094 182.148438 131.527344 181.296875 129.503906 L 185.558594 127.015625 C 185.957031 128.253906 185.601562 129.554688 184.605469 130.136719 Z M 181.625 125.035156 C 182.621094 124.453125 183.929688 124.78125 184.8125 125.738281 L 180.640625 128.175781 C 179.777344 126.121094 181.144531 125.316406 181.625 125.035156 Z M 179.039062 133.386719 C 178.042969 133.96875 176.734375 133.636719 175.855469 132.679688 L 180 130.261719 C 180.390625 131.382812 180.257812 132.675781 179.039062 133.386719 Z M 157.3125 116.136719 C 155.71875 113.414062 153.164062 111.46875 150.109375 110.667969 C 147.058594 109.863281 143.878906 110.296875 141.15625 111.890625 C 138.429688 113.480469 136.488281 116.035156 135.6875 119.089844 C 134.890625 122.140625 135.324219 125.324219 136.917969 128.050781 C 138.507812 130.773438 141.066406 132.71875 144.117188 133.519531 C 150.417969 135.175781 156.886719 131.398438 158.539062 125.097656 C 159.339844 122.046875 158.902344 118.863281 157.3125 116.136719 Z M 144.492188 132.09375 C 141.824219 131.390625 139.585938 129.691406 138.191406 127.304688 C 136.800781 124.921875 136.417969 122.136719 137.117188 119.464844 C 137.816406 116.792969 139.515625 114.554688 141.898438 113.164062 C 144.28125 111.773438 147.066406 111.394531 149.738281 112.09375 C 152.40625 112.796875 154.644531 114.496094 156.039062 116.882812 C 157.429688 119.269531 157.8125 122.050781 157.113281 124.722656 C 155.664062 130.234375 150.003906 133.542969 144.492188 132.09375 Z M 146.023438 129.167969 C 148.125 129.390625 150.085938 128.230469 150.582031 126.339844 C 150.875 125.226562 150.671875 124.105469 150.019531 123.179688 C 149.539062 122.503906 148.835938 121.96875 148.003906 121.625 L 149.253906 116.84375 C 149.730469 117.085938 150.136719 117.425781 150.425781 117.847656 C 150.820312 118.429688 150.953125 119.101562 150.789062 119.726562 C 150.6875 120.121094 150.921875 120.523438 151.316406 120.628906 C 151.710938 120.734375 152.113281 120.496094 152.21875 120.101562 C 152.46875 119.148438 152.320312 118.152344 151.800781 117.265625 C 151.753906 117.183594 151.703125 117.101562 151.644531 117.019531 C 151.160156 116.300781 150.457031 115.746094 149.636719 115.390625 L 149.890625 114.425781 C 149.941406 114.226562 149.910156 114.027344 149.8125 113.863281 C 149.71875 113.699219 149.558594 113.574219 149.363281 113.523438 C 148.96875 113.417969 148.566406 113.652344 148.460938 114.046875 L 148.207031 115.015625 C 147.320312 114.917969 146.433594 115.058594 145.65625 115.445312 C 144.636719 115.953125 143.921875 116.804688 143.648438 117.847656 C 143.066406 120.058594 144.003906 121.75 146.222656 122.582031 L 144.976562 127.339844 C 143.816406 126.75 143.148438 125.574219 143.441406 124.460938 C 143.546875 124.0625 143.308594 123.660156 142.914062 123.558594 C 142.519531 123.453125 142.117188 123.6875 142.015625 124.082031 C 141.515625 125.976562 142.65625 127.953125 144.597656 128.789062 L 144.34375 129.761719 C 144.238281 130.15625 144.472656 130.558594 144.867188 130.664062 C 145.265625 130.765625 145.667969 130.53125 145.769531 130.136719 Z M 148.8125 124.035156 C 149.214844 124.601562 149.335938 125.273438 149.152344 125.960938 C 148.863281 127.078125 147.703125 127.773438 146.402344 127.71875 L 147.621094 123.070312 C 148.117188 123.308594 148.53125 123.632812 148.8125 124.035156 Z M 145.078125 118.226562 C 145.238281 117.601562 145.679688 117.085938 146.316406 116.769531 C 146.773438 116.542969 147.292969 116.445312 147.824219 116.46875 L 146.601562 121.144531 C 144.539062 120.300781 144.933594 118.765625 145.078125 118.226562 Z M 201.867188 156.332031 C 201.671875 154.6875 201.148438 153.132812 200.339844 151.746094 C 199.605469 150.488281 198.632812 149.367188 197.457031 148.433594 C 194.980469 146.476562 191.894531 145.601562 188.757812 145.964844 C 185.625 146.332031 182.820312 147.894531 180.867188 150.371094 C 178.910156 152.847656 178.035156 155.9375 178.402344 159.070312 C 179.160156 165.542969 185.039062 170.191406 191.511719 169.4375 C 197.980469 168.683594 202.625 162.804688 201.867188 156.332031 Z M 191.339844 167.972656 C 187.132812 168.460938 183.214844 166.34375 181.203125 162.898438 C 180.507812 161.707031 180.039062 160.355469 179.871094 158.898438 C 179.546875 156.15625 180.3125 153.453125 182.023438 151.285156 C 183.734375 149.121094 186.1875 147.75 188.929688 147.433594 C 191.671875 147.113281 194.375 147.878906 196.542969 149.59375 C 198.707031 151.304688 200.078125 153.761719 200.398438 156.503906 C 201.0625 162.167969 197 167.308594 191.339844 167.972656 Z M 197.296875 157.609375 L 198.285156 157.496094 C 198.691406 157.449219 198.980469 157.082031 198.933594 156.675781 C 198.917969 156.570312 198.886719 156.472656 198.835938 156.390625 C 198.691406 156.144531 198.414062 155.992188 198.113281 156.027344 L 197.121094 156.144531 C 197.011719 155.734375 196.855469 155.339844 196.644531 154.980469 C 196.414062 154.585938 196.125 154.230469 195.789062 153.925781 C 194.945312 153.15625 193.890625 152.804688 192.820312 152.929688 C 191.140625 153.125 190.3125 153.972656 189.910156 154.648438 C 189.523438 155.304688 189.34375 156.113281 189.359375 157.050781 L 184.46875 157.621094 C 184.519531 157.089844 184.6875 156.585938 184.976562 156.164062 C 185.378906 155.578125 185.949219 155.214844 186.589844 155.140625 C 186.996094 155.09375 187.285156 154.726562 187.238281 154.320312 C 187.191406 153.917969 186.824219 153.625 186.417969 153.675781 C 185.347656 153.796875 184.402344 154.386719 183.757812 155.328125 C 183.269531 156.042969 183.007812 156.898438 182.976562 157.792969 L 181.984375 157.910156 C 181.578125 157.957031 181.289062 158.324219 181.335938 158.730469 C 181.382812 159.132812 181.75 159.425781 182.15625 159.375 L 183.148438 159.261719 C 183.382812 160.125 183.835938 160.898438 184.480469 161.480469 C 185.324219 162.246094 186.382812 162.601562 187.449219 162.476562 C 189.503906 162.238281 190.871094 160.550781 190.902344 158.355469 L 195.800781 157.785156 C 195.675781 159.078125 194.828125 160.128906 193.679688 160.261719 C 193.273438 160.308594 192.984375 160.675781 193.035156 161.082031 C 193.078125 161.488281 193.449219 161.777344 193.851562 161.730469 C 195.796875 161.503906 197.226562 159.722656 197.296875 157.609375 Z M 191.179688 155.402344 C 191.519531 154.824219 192.113281 154.496094 192.992188 154.394531 C 193.632812 154.320312 194.273438 154.539062 194.796875 155.015625 C 195.179688 155.363281 195.457031 155.8125 195.628906 156.316406 L 190.832031 156.878906 C 190.84375 156.285156 190.957031 155.78125 191.179688 155.402344 Z M 187.277344 161.007812 C 186.636719 161.085938 185.996094 160.863281 185.472656 160.386719 C 185.09375 160.039062 184.8125 159.589844 184.640625 159.085938 L 189.410156 158.527344 C 189.320312 159.714844 188.679688 160.84375 187.277344 161.007812 Z M 168.519531 101.695312 C 167.5625 103.960938 168.394531 106.652344 170.476562 107.964844 C 174.339844 110.265625 177.523438 108.519531 180.082031 107.117188 C 181.433594 106.375 182.597656 105.734375 183.554688 105.832031 C 183.839844 105.859375 184.117188 105.722656 184.261719 105.472656 C 184.410156 105.226562 184.398438 104.910156 184.238281 104.679688 C 183.699219 103.886719 183.703125 102.554688 183.710938 101.011719 C 183.722656 99.058594 183.734375 96.785156 182.574219 94.800781 C 182.003906 93.820312 181.144531 92.914062 179.863281 92.148438 C 177.734375 90.953125 174.972656 91.5 173.4375 93.421875 C 172.421875 94.699219 171.917969 96.679688 173.085938 98.816406 C 170.65625 98.804688 169.152344 100.191406 168.519531 101.695312 Z M 174.59375 94.34375 C 175.519531 93.1875 177.425781 92.472656 179.125 93.425781 C 182.261719 95.296875 182.25 98.199219 182.238281 101.003906 C 182.230469 102.242188 182.222656 103.429688 182.523438 104.4375 C 181.496094 104.65625 180.457031 105.226562 179.371094 105.820312 C 176.914062 107.167969 174.371094 108.566406 171.246094 106.703125 C 169.582031 105.65625 169.300781 103.636719 169.878906 102.269531 C 170.578125 100.613281 172.304688 99.945312 174.496094 100.476562 C 174.8125 100.554688 175.140625 100.414062 175.304688 100.136719 C 175.46875 99.859375 175.433594 99.503906 175.21875 99.261719 C 173.707031 97.585938 173.472656 95.75 174.59375 94.34375 Z M 174.046875 148.433594 C 173.136719 147.191406 172.34375 146.121094 172.3125 145.160156 C 172.308594 145.035156 172.273438 144.914062 172.214844 144.808594 C 172.136719 144.675781 172.015625 144.566406 171.867188 144.503906 C 171.601562 144.390625 171.296875 144.441406 171.082031 144.632812 C 170.367188 145.273438 169.046875 145.441406 167.519531 145.636719 C 164.625 146.007812 161.023438 146.46875 159.246094 150.621094 C 158.34375 152.886719 159.257812 155.554688 161.363281 156.820312 C 162.765625 157.664062 164.792969 157.902344 166.753906 156.464844 C 167.066406 158.875 168.640625 160.179688 170.214844 160.613281 C 172.585938 161.261719 175.144531 160.082031 176.164062 157.847656 C 177.933594 153.710938 175.78125 150.785156 174.046875 148.433594 Z M 170.605469 159.1875 C 169.765625 158.957031 169.121094 158.460938 168.710938 157.753906 C 168.269531 156.996094 168.089844 156.003906 168.210938 154.847656 C 168.246094 154.523438 168.066406 154.21875 167.765625 154.089844 C 167.46875 153.960938 167.125 154.042969 166.914062 154.289062 C 165.457031 156.011719 163.667969 156.484375 162.125 155.558594 C 160.851562 154.789062 159.890625 152.992188 160.609375 151.1875 C 162.046875 147.824219 164.925781 147.457031 167.707031 147.101562 C 168.933594 146.945312 170.109375 146.792969 171.070312 146.367188 C 171.421875 147.355469 172.125 148.3125 172.859375 149.308594 C 174.523438 151.566406 176.242188 153.90625 174.816406 157.25 C 174 159.035156 172.035156 159.582031 170.605469 159.1875 Z M 170.605469 159.1875 " clip-rule="nonzero"/></clipPath><clipPath id="a791dd698b"><path d="M 165 104 L 190 104 L 190 127 L 165 127 Z M 165 104 " clip-rule="nonzero"/></clipPath><clipPath id="660c5cd74f"><path d="M 165.503906 121.320312 L 170.289062 103.191406 L 189.144531 108.167969 L 184.359375 126.296875 Z M 165.503906 121.320312 " clip-rule="nonzero"/></clipPath><clipPath id="cb6970f626"><path d="M 201.164062 208.042969 L 225.089844 117.394531 L 135.167969 93.664062 L 111.246094 184.308594 Z M 201.164062 208.042969 " clip-rule="nonzero"/></clipPath><clipPath id="862326cd47"><path d="M 157.738281 146.511719 C 154.492188 152.042969 148.988281 163.304688 148.933594 163.417969 C 146.820312 167.769531 143.144531 169.523438 140.460938 170.808594 C 139.90625 171.074219 139.378906 171.324219 138.902344 171.582031 C 137.867188 172.136719 137.09375 173.136719 136.78125 174.320312 L 132.855469 189.203125 C 132.75 189.597656 132.347656 189.832031 131.953125 189.726562 C 131.558594 189.625 131.324219 189.21875 131.425781 188.824219 L 135.355469 173.941406 C 135.773438 172.363281 136.808594 171.03125 138.203125 170.28125 C 138.699219 170.011719 139.246094 169.75 139.828125 169.472656 C 142.453125 168.21875 145.71875 166.660156 147.605469 162.769531 C 147.664062 162.65625 153.191406 151.347656 156.460938 145.777344 C 156.46875 145.761719 157.332031 144.15625 156.941406 142.980469 C 156.789062 142.523438 156.460938 142.1875 155.9375 141.949219 C 154.703125 141.394531 153.21875 142.015625 152.390625 142.914062 C 150.160156 145.347656 146.042969 149.703125 143.535156 151.535156 C 142.617188 152.203125 141.355469 152.074219 140.601562 151.230469 C 139.320312 149.804688 138.679688 147.914062 138.839844 146.039062 C 139.050781 143.589844 139.792969 138.382812 142.40625 131.050781 C 143.15625 128.949219 144.382812 127.003906 145.953125 125.433594 C 148.859375 122.523438 153.582031 116.917969 152.515625 112.132812 C 152.390625 111.570312 152.011719 111.121094 151.472656 110.894531 C 150.914062 110.65625 150.269531 110.707031 149.75 111.027344 C 148.300781 111.921875 145.828125 113.78125 142.402344 116.351562 C 140.242188 117.972656 137.789062 119.8125 134.992188 121.863281 C 134.082031 122.535156 133.375 123.601562 132.894531 125.039062 C 132.109375 127.378906 130.605469 131.476562 128.703125 136.660156 C 126.183594 143.523438 123.046875 152.0625 120.367188 159.871094 L 112.863281 183.957031 C 112.742188 184.347656 112.328125 184.566406 111.941406 184.445312 C 111.558594 184.328125 111.34375 183.929688 111.445312 183.550781 C 111.449219 183.539062 111.449219 183.53125 111.453125 183.519531 L 118.960938 159.410156 C 121.65625 151.566406 124.792969 143.019531 127.3125 136.152344 C 129.214844 130.976562 130.714844 126.890625 131.492188 124.570312 C 132.070312 122.835938 132.953125 121.527344 134.117188 120.675781 C 136.910156 118.625 139.355469 116.789062 141.515625 115.167969 C 144.972656 112.578125 147.46875 110.703125 148.972656 109.773438 C 149.894531 109.199219 151.042969 109.109375 152.046875 109.53125 C 153.027344 109.949219 153.726562 110.777344 153.957031 111.808594 C 154.046875 112.226562 154.09375 112.644531 154.117188 113.066406 C 155.050781 113.433594 155.769531 114.203125 156.046875 115.179688 C 157.585938 120.574219 152.890625 126.925781 149.957031 130.230469 C 148.625 131.730469 147.625 133.542969 147.0625 135.476562 C 145.292969 141.539062 144.699219 146.070312 144.507812 148.808594 C 146.804688 146.742188 149.605469 143.765625 151.304688 141.917969 C 152.707031 140.386719 154.863281 139.847656 156.542969 140.605469 C 157.328125 140.957031 157.875 141.496094 158.191406 142.1875 C 159.070312 142.582031 159.683594 143.175781 159.988281 143.988281 C 160.679688 145.824219 159.515625 147.980469 159.460938 148.074219 C 156.34375 153.683594 151.097656 165.070312 151.03125 165.210938 C 148.546875 170.027344 146.359375 171.953125 143.640625 173.496094 C 142.640625 174.066406 141.734375 175.691406 141.429688 176.949219 L 137.851562 190.519531 C 137.746094 190.914062 137.339844 191.148438 136.949219 191.046875 C 136.554688 190.941406 136.320312 190.539062 136.421875 190.144531 L 140 176.589844 C 140.011719 176.542969 140.023438 176.492188 140.035156 176.445312 C 140.445312 174.902344 141.539062 172.992188 142.910156 172.210938 C 145.394531 170.800781 147.402344 169.023438 149.707031 164.566406 C 149.757812 164.449219 155.027344 153.015625 158.167969 147.363281 C 158.417969 146.90625 158.984375 145.496094 158.605469 144.507812 C 158.570312 144.414062 158.523438 144.332031 158.472656 144.253906 C 158.320312 145.449219 157.777344 146.441406 157.738281 146.511719 Z M 145.0625 137.152344 C 145.242188 136.476562 145.433594 135.777344 145.644531 135.0625 C 146.269531 132.921875 147.378906 130.910156 148.855469 129.25 C 151.585938 126.171875 155.972656 120.304688 154.628906 115.585938 C 154.527344 115.234375 154.324219 114.941406 154.054688 114.722656 C 153.453125 119.320312 149.570312 123.898438 146.992188 126.476562 C 145.578125 127.894531 144.472656 129.648438 143.796875 131.542969 C 141.238281 138.722656 140.511719 143.785156 140.308594 146.164062 C 140.183594 147.632812 140.6875 149.121094 141.695312 150.242188 C 141.945312 150.515625 142.359375 150.5625 142.660156 150.34375 C 142.757812 150.269531 142.863281 150.191406 142.964844 150.109375 C 143.035156 147.851562 143.414062 143.40625 145.0625 137.152344 Z M 177.371094 153.585938 C 171.074219 151.925781 167.304688 145.445312 168.964844 139.144531 C 170.628906 132.84375 177.105469 129.070312 183.402344 130.734375 C 189.695312 132.394531 193.464844 138.871094 191.804688 145.171875 C 190.140625 151.472656 183.664062 155.25 177.371094 153.585938 Z M 190.375 144.796875 C 191.832031 139.28125 188.535156 133.613281 183.023438 132.160156 C 177.515625 130.707031 171.847656 134.007812 170.394531 139.523438 C 168.9375 145.035156 172.238281 150.703125 177.746094 152.15625 C 183.253906 153.613281 188.921875 150.308594 190.375 144.796875 Z M 176.515625 144.195312 C 176.910156 144.296875 177.144531 144.703125 177.039062 145.097656 C 176.9375 145.492188 176.53125 145.726562 176.136719 145.621094 C 174.246094 145.121094 173.082031 143.160156 173.308594 141.054688 L 172.347656 140.800781 C 171.953125 140.699219 171.71875 140.292969 171.820312 139.898438 C 171.925781 139.503906 172.328125 139.269531 172.722656 139.375 L 173.6875 139.628906 C 174.527344 137.683594 176.507812 136.550781 178.402344 137.050781 C 180.609375 137.636719 181.609375 139.285156 181.238281 141.621094 L 186.007812 142.878906 C 186.0625 141.578125 185.371094 140.417969 184.253906 140.125 C 183.859375 140.019531 183.625 139.617188 183.730469 139.222656 C 183.835938 138.828125 184.238281 138.59375 184.632812 138.695312 C 186.523438 139.195312 187.691406 141.160156 187.460938 143.261719 L 188.425781 143.515625 C 188.816406 143.621094 189.054688 144.023438 188.949219 144.417969 C 188.84375 144.816406 188.441406 145.050781 188.046875 144.945312 L 187.082031 144.691406 C 186.242188 146.632812 184.261719 147.765625 182.371094 147.265625 C 180.371094 146.738281 179.257812 144.878906 179.535156 142.699219 L 174.765625 141.441406 C 174.707031 142.738281 175.398438 143.898438 176.515625 144.195312 Z M 178.023438 138.480469 C 176.90625 138.1875 175.734375 138.855469 175.140625 140.011719 L 179.8125 141.246094 C 180.09375 139.035156 178.5625 138.621094 178.023438 138.480469 Z M 182.746094 145.839844 C 183.863281 146.132812 185.035156 145.464844 185.628906 144.308594 L 180.988281 143.082031 C 180.90625 144.269531 181.382812 145.476562 182.746094 145.839844 Z M 199.074219 123.410156 C 199.878906 120.359375 201.824219 117.800781 204.550781 116.214844 C 207.277344 114.625 210.457031 114.191406 213.507812 114.996094 C 216.558594 115.800781 219.113281 117.746094 220.699219 120.476562 C 222.285156 123.203125 222.71875 126.386719 221.910156 129.4375 C 221.105469 132.488281 219.160156 135.046875 216.433594 136.632812 C 210.804688 139.914062 203.5625 138.003906 200.285156 132.371094 C 198.699219 129.644531 198.269531 126.460938 199.074219 123.410156 Z M 215.691406 135.359375 C 218.078125 133.96875 219.777344 131.730469 220.484375 129.0625 C 221.1875 126.390625 220.8125 123.605469 219.421875 121.21875 C 218.035156 118.832031 215.800781 117.128906 213.132812 116.425781 C 210.464844 115.722656 207.679688 116.097656 205.292969 117.488281 C 202.910156 118.878906 201.207031 121.117188 200.5 123.785156 C 199.796875 126.457031 200.175781 129.242188 201.5625 131.628906 C 204.429688 136.554688 210.765625 138.226562 215.691406 135.359375 Z M 213.433594 132.949219 C 211.46875 133.726562 209.269531 133.132812 208.285156 131.441406 C 207.707031 130.449219 207.601562 129.3125 207.984375 128.25 C 208.265625 127.46875 208.800781 126.765625 209.511719 126.207031 L 207.027344 121.9375 C 206.632812 122.296875 206.332031 122.734375 206.167969 123.21875 C 205.941406 123.882812 205.996094 124.566406 206.320312 125.125 C 206.523438 125.476562 206.40625 125.929688 206.050781 126.132812 C 205.699219 126.339844 205.25 126.222656 205.042969 125.867188 C 204.546875 125.015625 204.425781 124.015625 204.6875 123.023438 C 204.710938 122.929688 204.738281 122.839844 204.769531 122.746094 C 205.046875 121.925781 205.574219 121.199219 206.273438 120.640625 L 205.769531 119.773438 C 205.667969 119.597656 205.644531 119.398438 205.691406 119.214844 C 205.742188 119.03125 205.859375 118.867188 206.035156 118.765625 C 206.386719 118.558594 206.839844 118.679688 207.042969 119.03125 L 207.546875 119.894531 C 208.378906 119.566406 209.269531 119.464844 210.121094 119.625 C 211.242188 119.84375 212.15625 120.472656 212.699219 121.40625 C 213.847656 123.378906 213.398438 125.261719 211.480469 126.65625 L 213.957031 130.910156 C 214.914062 130.027344 215.246094 128.71875 214.664062 127.722656 C 214.457031 127.367188 214.578125 126.917969 214.929688 126.710938 C 215.285156 126.507812 215.734375 126.625 215.941406 126.976562 C 216.925781 128.671875 216.355469 130.878906 214.707031 132.203125 L 215.214844 133.070312 C 215.417969 133.425781 215.300781 133.875 214.945312 134.082031 C 214.59375 134.285156 214.144531 134.167969 213.9375 133.816406 Z M 209.375 128.746094 C 209.140625 129.402344 209.203125 130.082031 209.5625 130.695312 C 210.140625 131.695312 211.441406 132.054688 212.679688 131.652344 L 210.265625 127.5 C 209.851562 127.859375 209.539062 128.285156 209.375 128.746094 Z M 211.421875 122.152344 C 211.097656 121.59375 210.535156 121.210938 209.839844 121.078125 C 209.339844 120.984375 208.8125 121.03125 208.304688 121.195312 L 210.734375 125.371094 C 212.496094 124.007812 211.703125 122.632812 211.421875 122.152344 Z M 166.882812 174.050781 C 166.628906 172.414062 166.71875 170.777344 167.128906 169.222656 C 167.5 167.8125 168.136719 166.472656 169.019531 165.261719 C 170.882812 162.710938 173.625 161.042969 176.742188 160.558594 C 179.859375 160.070312 182.980469 160.828125 185.527344 162.691406 C 188.070312 164.554688 189.742188 167.296875 190.226562 170.417969 C 191.222656 176.855469 186.800781 182.910156 180.367188 183.910156 C 173.929688 184.914062 167.882812 180.488281 166.882812 174.050781 Z M 180.140625 182.453125 C 184.320312 181.800781 187.53125 178.710938 188.550781 174.855469 C 188.902344 173.519531 188.992188 172.09375 188.765625 170.644531 C 188.34375 167.914062 186.882812 165.515625 184.65625 163.882812 C 182.425781 162.253906 179.695312 161.589844 176.96875 162.015625 C 174.242188 162.441406 171.84375 163.902344 170.214844 166.132812 C 168.582031 168.363281 167.921875 171.09375 168.34375 173.824219 C 169.214844 179.457031 174.507812 183.328125 180.140625 182.453125 Z M 171.628906 174.058594 L 170.644531 174.210938 C 170.242188 174.277344 169.863281 174 169.800781 173.597656 C 169.785156 173.492188 169.792969 173.390625 169.816406 173.296875 C 169.890625 173.019531 170.121094 172.800781 170.417969 172.753906 L 171.40625 172.601562 C 171.402344 172.175781 171.449219 171.753906 171.554688 171.351562 C 171.671875 170.910156 171.851562 170.488281 172.09375 170.105469 C 172.703125 169.140625 173.628906 168.515625 174.691406 168.351562 C 176.363281 168.089844 177.386719 168.6875 177.953125 169.230469 C 178.503906 169.757812 178.890625 170.492188 179.125 171.398438 L 183.992188 170.640625 C 183.800781 170.144531 183.503906 169.703125 183.113281 169.375 C 182.570312 168.917969 181.921875 168.71875 181.285156 168.820312 C 180.882812 168.882812 180.503906 168.605469 180.441406 168.203125 C 180.382812 167.800781 180.65625 167.421875 181.058594 167.359375 C 182.121094 167.195312 183.191406 167.507812 184.066406 168.242188 C 184.726562 168.800781 185.210938 169.554688 185.476562 170.410156 L 186.464844 170.257812 C 186.867188 170.191406 187.242188 170.46875 187.304688 170.871094 C 187.371094 171.277344 187.09375 171.652344 186.691406 171.714844 L 185.703125 171.871094 C 185.707031 172.765625 185.476562 173.628906 185.011719 174.363281 C 184.402344 175.328125 183.480469 175.953125 182.417969 176.117188 C 180.375 176.4375 178.609375 175.175781 177.988281 173.070312 L 173.113281 173.828125 C 173.582031 175.039062 174.683594 175.828125 175.820312 175.648438 C 176.226562 175.585938 176.601562 175.863281 176.664062 176.265625 C 176.726562 176.667969 176.449219 177.046875 176.046875 177.109375 C 174.113281 177.410156 172.261719 176.078125 171.628906 174.058594 Z M 176.929688 170.296875 C 176.449219 169.832031 175.792969 169.675781 174.917969 169.808594 C 174.28125 169.910156 173.722656 170.292969 173.34375 170.894531 C 173.070312 171.328125 172.921875 171.835938 172.890625 172.367188 L 177.660156 171.625 C 177.492188 171.058594 177.25 170.601562 176.929688 170.296875 Z M 182.191406 174.65625 C 182.828125 174.558594 183.386719 174.171875 183.765625 173.574219 C 184.039062 173.140625 184.1875 172.632812 184.21875 172.097656 L 179.476562 172.835938 C 179.878906 173.957031 180.796875 174.875 182.191406 174.65625 Z M 184.414062 112.488281 C 185.945312 114.417969 185.859375 117.230469 184.207031 119.050781 C 181.097656 122.304688 177.5625 121.472656 174.722656 120.800781 C 173.222656 120.449219 171.929688 120.144531 171.03125 120.492188 C 170.765625 120.597656 170.460938 120.535156 170.253906 120.335938 C 170.046875 120.136719 169.972656 119.828125 170.066406 119.566406 C 170.375 118.65625 170.011719 117.375 169.59375 115.890625 C 169.058594 114.011719 168.441406 111.820312 169.027344 109.601562 C 169.316406 108.503906 169.902344 107.398438 170.933594 106.320312 C 172.664062 104.597656 175.46875 104.390625 177.464844 105.832031 C 178.785156 106.789062 179.800781 108.5625 179.246094 110.933594 C 181.585938 110.273438 183.402344 111.207031 184.414062 112.488281 Z M 176.597656 107.027344 C 175.394531 106.160156 173.367188 105.980469 171.984375 107.355469 C 169.460938 109.996094 170.25 112.789062 171.011719 115.488281 C 171.347656 116.679688 171.671875 117.820312 171.652344 118.871094 C 172.703125 118.808594 173.855469 119.078125 175.058594 119.363281 C 177.789062 120.007812 180.613281 120.671875 183.125 118.042969 C 184.449219 116.589844 184.179688 114.570312 183.257812 113.40625 C 182.140625 111.996094 180.300781 111.8125 178.328125 112.910156 C 178.046875 113.070312 177.695312 113.023438 177.460938 112.800781 C 177.226562 112.574219 177.164062 112.226562 177.308594 111.933594 C 178.320312 109.914062 178.054688 108.082031 176.597656 107.027344 Z M 191.578125 159.003906 C 192.125 157.5625 192.601562 156.320312 192.375 155.386719 C 192.34375 155.261719 192.347656 155.140625 192.378906 155.023438 C 192.417969 154.871094 192.503906 154.734375 192.632812 154.632812 C 192.855469 154.453125 193.164062 154.421875 193.417969 154.546875 C 194.28125 154.972656 195.597656 154.785156 197.125 154.5625 C 200.011719 154.144531 203.605469 153.628906 206.425781 157.15625 C 207.902344 159.097656 207.734375 161.910156 206.042969 163.699219 C 204.917969 164.882812 203.027344 165.652344 200.753906 164.792969 C 201.09375 167.199219 199.929688 168.878906 198.527344 169.714844 C 196.414062 170.976562 193.636719 170.523438 192.054688 168.640625 C 189.246094 165.128906 190.539062 161.730469 191.578125 159.003906 Z M 197.773438 168.445312 C 198.519531 168 199.003906 167.347656 199.214844 166.558594 C 199.4375 165.710938 199.34375 164.707031 198.917969 163.625 C 198.796875 163.324219 198.890625 162.976562 199.144531 162.777344 C 199.394531 162.574219 199.75 162.558594 200.019531 162.742188 C 201.882812 164.007812 203.734375 163.988281 204.972656 162.679688 C 205.996094 161.601562 206.4375 159.613281 205.261719 158.066406 C 202.980469 155.210938 200.109375 155.625 197.332031 156.023438 C 196.109375 156.203125 194.933594 156.371094 193.894531 156.214844 C 193.820312 157.261719 193.398438 158.375 192.957031 159.527344 C 191.960938 162.148438 190.925781 164.863281 193.195312 167.703125 C 194.460938 169.207031 196.496094 169.207031 197.773438 168.445312 Z M 197.773438 168.445312 " clip-rule="nonzero"/></clipPath><clipPath id="daf211295b"><path d="M 189 100 L 221 100 L 221 136 L 189 136 Z M 189 100 " clip-rule="nonzero"/></clipPath><clipPath id="5d15a661af"><path d="M 206.269531 100.046875 L 220.28125 122.242188 L 199.355469 135.453125 L 185.339844 113.257812 Z M 206.269531 100.046875 " clip-rule="nonzero"/></clipPath><clipPath id="319bdd3bd1"><path d="M 235.046875 192.441406 L 184.996094 113.171875 L 263.632812 63.519531 L 313.683594 142.792969 Z M 235.046875 192.441406 " clip-rule="nonzero"/></clipPath><clipPath id="e53bcf79b6"><path d="M 257.980469 120.707031 C 262.738281 125.011719 271.375 134.097656 271.460938 134.1875 C 274.78125 137.703125 278.816406 138.273438 281.757812 138.691406 C 282.371094 138.777344 282.949219 138.859375 283.480469 138.960938 C 284.632812 139.179688 285.671875 139.902344 286.324219 140.933594 L 294.542969 153.949219 C 294.757812 154.296875 295.214844 154.398438 295.558594 154.179688 C 295.90625 153.964844 296.007812 153.507812 295.789062 153.164062 L 287.570312 140.148438 C 286.699219 138.765625 285.308594 137.804688 283.753906 137.511719 C 283.203125 137.40625 282.601562 137.320312 281.964844 137.230469 C 279.082031 136.820312 275.5 136.3125 272.53125 133.171875 C 272.441406 133.082031 263.769531 123.953125 258.980469 119.625 C 258.96875 119.613281 257.664062 118.339844 257.679688 117.101562 C 257.6875 116.621094 257.902344 116.199219 258.332031 115.816406 C 259.339844 114.914062 260.941406 115.0625 262 115.671875 C 264.859375 117.320312 270.097656 120.238281 273.039062 121.234375 C 274.113281 121.597656 275.277344 121.09375 275.746094 120.0625 C 276.539062 118.320312 276.582031 116.320312 275.867188 114.582031 C 274.929688 112.308594 272.65625 107.5625 267.960938 101.355469 C 266.613281 99.574219 264.859375 98.089844 262.890625 97.0625 C 259.242188 95.160156 253.054688 91.234375 252.632812 86.347656 C 252.585938 85.777344 252.8125 85.234375 253.257812 84.855469 C 253.722656 84.460938 254.351562 84.316406 254.941406 84.464844 C 256.589844 84.882812 259.507812 85.910156 263.546875 87.332031 C 266.097656 88.230469 268.988281 89.25 272.273438 90.367188 C 273.34375 90.730469 274.335938 91.535156 275.226562 92.761719 C 276.679688 94.761719 279.34375 98.214844 282.71875 102.589844 C 287.183594 108.378906 292.738281 115.582031 297.640625 122.222656 L 312.03125 142.945312 C 312.265625 143.28125 312.726562 143.363281 313.058594 143.128906 C 313.386719 142.902344 313.476562 142.460938 313.265625 142.128906 C 313.257812 142.121094 313.253906 142.109375 313.246094 142.101562 L 298.839844 121.363281 C 293.917969 114.691406 288.355469 107.480469 283.890625 101.6875 C 280.523438 97.324219 277.863281 93.875 276.425781 91.894531 C 275.351562 90.417969 274.113281 89.433594 272.75 88.96875 C 269.472656 87.855469 266.585938 86.835938 264.039062 85.941406 C 259.964844 84.503906 257.019531 83.46875 255.304688 83.03125 C 254.253906 82.765625 253.128906 83.023438 252.300781 83.726562 C 251.488281 84.417969 251.074219 85.417969 251.164062 86.472656 C 251.199219 86.898438 251.285156 87.3125 251.386719 87.722656 C 250.609375 88.351562 250.152344 89.300781 250.179688 90.316406 C 250.335938 95.921875 256.722656 100.570312 260.511719 102.84375 C 262.234375 103.871094 263.734375 105.300781 264.851562 106.976562 C 268.359375 112.226562 270.289062 116.371094 271.289062 118.925781 C 268.476562 117.640625 264.914062 115.648438 262.738281 114.394531 C 260.941406 113.355469 258.722656 113.488281 257.347656 114.714844 C 256.703125 115.289062 256.347656 115.964844 256.25 116.722656 C 255.53125 117.359375 255.125 118.113281 255.074219 118.976562 C 254.96875 120.9375 256.730469 122.644531 256.808594 122.71875 C 261.464844 127.128906 269.890625 136.414062 269.996094 136.53125 C 273.8125 140.375 276.476562 141.554688 279.535156 142.210938 C 280.660156 142.453125 282.015625 143.730469 282.679688 144.84375 L 290.171875 156.710938 C 290.390625 157.054688 290.847656 157.15625 291.191406 156.941406 C 291.535156 156.722656 291.640625 156.265625 291.421875 155.921875 L 283.9375 144.070312 C 283.914062 144.027344 283.886719 143.984375 283.859375 143.941406 C 283.007812 142.589844 281.386719 141.097656 279.84375 140.765625 C 277.050781 140.167969 274.605469 139.074219 271.066406 135.515625 C 270.984375 135.421875 262.519531 126.097656 257.828125 121.652344 C 257.453125 121.289062 256.492188 120.117188 256.550781 119.054688 C 256.558594 118.960938 256.582031 118.867188 256.601562 118.773438 C 257.109375 119.867188 257.921875 120.652344 257.980469 120.707031 Z M 267.257812 107.972656 C 266.886719 107.382812 266.492188 106.777344 266.078125 106.15625 C 264.839844 104.300781 263.175781 102.71875 261.269531 101.574219 C 257.738281 99.460938 251.792969 95.183594 251.65625 90.277344 C 251.648438 89.910156 251.753906 89.570312 251.945312 89.28125 C 253.898438 93.484375 258.980469 96.683594 262.210938 98.371094 C 263.988281 99.296875 265.570312 100.636719 266.78125 102.242188 C 271.378906 108.320312 273.589844 112.933594 274.5 115.140625 C 275.0625 116.503906 275.027344 118.074219 274.402344 119.445312 C 274.25 119.785156 273.867188 119.953125 273.511719 119.832031 C 273.398438 119.792969 273.277344 119.746094 273.15625 119.703125 C 272.410156 117.566406 270.714844 113.441406 267.257812 107.972656 Z M 241.382812 133.355469 C 246.890625 129.878906 248.539062 122.566406 245.058594 117.054688 C 241.582031 111.546875 234.269531 109.890625 228.765625 113.367188 C 223.257812 116.84375 221.609375 124.15625 225.089844 129.667969 C 228.566406 135.175781 235.878906 136.832031 241.382812 133.355469 Z M 226.335938 128.878906 C 223.292969 124.054688 224.734375 117.660156 229.554688 114.617188 C 234.371094 111.574219 240.765625 113.023438 243.8125 117.84375 C 246.855469 122.667969 245.414062 129.0625 240.59375 132.105469 C 235.777344 135.148438 229.378906 133.699219 226.335938 128.878906 Z M 239.375 124.140625 C 239.03125 124.355469 238.929688 124.8125 239.144531 125.15625 C 239.363281 125.503906 239.820312 125.605469 240.164062 125.386719 C 241.820312 124.34375 242.339844 122.121094 241.492188 120.183594 L 242.332031 119.652344 C 242.675781 119.433594 242.78125 118.976562 242.5625 118.632812 C 242.34375 118.289062 241.890625 118.183594 241.542969 118.402344 L 240.703125 118.933594 C 239.316406 117.332031 237.085938 116.847656 235.433594 117.894531 C 233.5 119.113281 233.042969 120.988281 234.097656 123.105469 L 229.929688 125.738281 C 229.484375 124.515625 229.796875 123.199219 230.769531 122.582031 C 231.117188 122.367188 231.21875 121.910156 231 121.566406 C 230.78125 121.21875 230.328125 121.117188 229.984375 121.335938 C 228.328125 122.378906 227.804688 124.601562 228.65625 126.539062 L 227.8125 127.070312 C 227.46875 127.289062 227.367188 127.746094 227.585938 128.089844 C 227.800781 128.433594 228.257812 128.539062 228.601562 128.320312 L 229.445312 127.789062 C 230.828125 129.390625 233.058594 129.875 234.714844 128.828125 C 236.464844 127.726562 236.96875 125.613281 236.046875 123.621094 L 240.21875 120.988281 C 240.664062 122.207031 240.351562 123.523438 239.375 124.140625 Z M 236.222656 119.144531 C 237.195312 118.527344 238.515625 118.8125 239.429688 119.738281 L 235.347656 122.316406 C 234.414062 120.292969 235.75 119.441406 236.222656 119.144531 Z M 233.925781 127.578125 C 232.949219 128.195312 231.632812 127.910156 230.71875 126.984375 L 234.777344 124.421875 C 235.207031 125.53125 235.121094 126.828125 233.925781 127.578125 Z M 211.613281 111.09375 C 209.929688 108.425781 207.304688 106.570312 204.230469 105.875 C 201.152344 105.175781 197.988281 105.71875 195.320312 107.40625 C 192.652344 109.089844 190.800781 111.710938 190.105469 114.789062 C 189.414062 117.867188 189.957031 121.035156 191.644531 123.703125 C 193.328125 126.371094 195.953125 128.226562 199.03125 128.921875 C 205.382812 130.359375 211.71875 126.359375 213.152344 120.003906 C 213.847656 116.925781 213.300781 113.761719 211.613281 111.09375 Z M 199.355469 127.480469 C 196.664062 126.871094 194.367188 125.25 192.890625 122.914062 C 191.417969 120.578125 190.941406 117.808594 191.546875 115.117188 C 192.15625 112.421875 193.773438 110.128906 196.109375 108.652344 C 198.441406 107.179688 201.210938 106.703125 203.902344 107.316406 C 206.597656 107.921875 208.890625 109.546875 210.367188 111.882812 C 211.839844 114.214844 212.320312 116.988281 211.710938 119.679688 C 210.457031 125.238281 204.914062 128.738281 199.355469 127.480469 Z M 200.785156 124.503906 C 202.890625 124.65625 204.808594 123.429688 205.242188 121.519531 C 205.496094 120.398438 205.257812 119.285156 204.570312 118.382812 C 204.070312 117.722656 203.34375 117.214844 202.5 116.898438 L 203.585938 112.078125 C 204.070312 112.304688 204.488281 112.628906 204.789062 113.042969 C 205.207031 113.605469 205.363281 114.273438 205.21875 114.90625 C 205.128906 115.300781 205.378906 115.699219 205.777344 115.789062 C 206.175781 115.878906 206.570312 115.628906 206.660156 115.230469 C 206.875 114.269531 206.695312 113.277344 206.144531 112.410156 C 206.09375 112.328125 206.039062 112.25 205.984375 112.167969 C 205.472656 111.46875 204.75 110.9375 203.917969 110.613281 L 204.136719 109.636719 C 204.183594 109.4375 204.140625 109.238281 204.042969 109.078125 C 203.941406 108.917969 203.777344 108.796875 203.578125 108.753906 C 203.179688 108.664062 202.789062 108.914062 202.699219 109.3125 L 202.476562 110.285156 C 201.585938 110.21875 200.707031 110.390625 199.941406 110.800781 C 198.9375 111.34375 198.253906 112.222656 198.019531 113.273438 C 197.515625 115.503906 198.511719 117.160156 200.757812 117.914062 L 199.671875 122.714844 C 198.496094 122.164062 197.785156 121.015625 198.039062 119.886719 C 198.128906 119.488281 197.882812 119.09375 197.484375 119.003906 C 197.085938 118.914062 196.691406 119.164062 196.601562 119.5625 C 196.167969 121.472656 197.375 123.40625 199.34375 124.175781 L 199.125 125.15625 C 199.035156 125.554688 199.285156 125.949219 199.679688 126.039062 C 200.078125 126.128906 200.472656 125.878906 200.5625 125.480469 Z M 203.394531 119.277344 C 203.8125 119.832031 203.960938 120.496094 203.800781 121.195312 C 203.546875 122.320312 202.414062 123.050781 201.113281 123.042969 L 202.171875 118.355469 C 202.671875 118.574219 203.097656 118.886719 203.394531 119.277344 Z M 199.457031 113.601562 C 199.601562 112.972656 200.023438 112.441406 200.644531 112.105469 C 201.097656 111.859375 201.613281 111.746094 202.144531 111.753906 L 201.082031 116.464844 C 198.992188 115.695312 199.335938 114.144531 199.457031 113.601562 Z M 257.53125 149.722656 C 257.28125 148.085938 256.707031 146.550781 255.847656 145.191406 C 255.070312 143.960938 254.058594 142.871094 252.851562 141.980469 C 250.3125 140.109375 247.195312 139.339844 244.074219 139.816406 C 240.953125 140.289062 238.207031 141.949219 236.339844 144.492188 C 234.46875 147.03125 233.703125 150.148438 234.179688 153.269531 C 235.160156 159.710938 241.195312 164.15625 247.636719 163.179688 C 254.074219 162.199219 258.515625 156.164062 257.53125 149.722656 Z M 247.414062 161.71875 C 243.230469 162.351562 239.238281 160.371094 237.109375 157 C 236.371094 155.832031 235.859375 154.496094 235.636719 153.046875 C 235.222656 150.316406 235.894531 147.589844 237.527344 145.363281 C 239.164062 143.140625 241.566406 141.6875 244.296875 141.273438 C 247.027344 140.859375 249.753906 141.535156 251.976562 143.171875 C 254.203125 144.808594 255.65625 147.214844 256.074219 149.945312 C 256.929688 155.582031 253.046875 160.863281 247.414062 161.71875 Z M 253.007812 151.15625 L 253.992188 151.007812 C 254.398438 150.945312 254.671875 150.570312 254.613281 150.167969 C 254.597656 150.0625 254.558594 149.96875 254.507812 149.882812 C 254.355469 149.644531 254.070312 149.503906 253.769531 149.546875 L 252.785156 149.699219 C 252.660156 149.292969 252.488281 148.90625 252.265625 148.554688 C 252.023438 148.167969 251.722656 147.820312 251.375 147.527344 C 250.503906 146.789062 249.4375 146.472656 248.375 146.632812 C 246.703125 146.886719 245.902344 147.761719 245.523438 148.453125 C 245.160156 149.121094 245.011719 149.933594 245.058594 150.871094 L 240.1875 151.609375 C 240.222656 151.078125 240.371094 150.570312 240.648438 150.136719 C 241.027344 149.539062 241.585938 149.15625 242.226562 149.058594 C 242.628906 149 242.902344 148.621094 242.84375 148.21875 C 242.78125 147.816406 242.402344 147.539062 242 147.601562 C 240.9375 147.761719 240.011719 148.382812 239.398438 149.34375 C 238.933594 150.078125 238.703125 150.941406 238.707031 151.835938 L 237.714844 151.988281 C 237.3125 152.046875 237.035156 152.425781 237.097656 152.828125 C 237.160156 153.230469 237.535156 153.507812 237.9375 153.445312 L 238.929688 153.296875 C 239.191406 154.152344 239.671875 154.90625 240.335938 155.46875 C 241.207031 156.207031 242.273438 156.523438 243.339844 156.359375 C 245.382812 156.050781 246.6875 154.320312 246.644531 152.125 L 251.523438 151.382812 C 251.4375 152.679688 250.628906 153.761719 249.488281 153.933594 C 249.082031 153.992188 248.808594 154.371094 248.871094 154.773438 C 248.929688 155.175781 249.308594 155.453125 249.710938 155.390625 C 251.644531 155.097656 253.011719 153.273438 253.007812 151.15625 Z M 246.820312 149.160156 C 247.140625 148.574219 247.722656 148.226562 248.597656 148.089844 C 249.234375 147.996094 249.882812 148.195312 250.421875 148.652344 C 250.816406 148.984375 251.109375 149.425781 251.300781 149.921875 L 246.523438 150.648438 C 246.511719 150.054688 246.609375 149.546875 246.820312 149.160156 Z M 243.113281 154.902344 C 242.476562 154.996094 241.828125 154.796875 241.285156 154.339844 C 240.894531 154.007812 240.601562 153.566406 240.410156 153.070312 L 245.160156 152.347656 C 245.109375 153.535156 244.507812 154.6875 243.113281 154.902344 Z M 222.316406 96.269531 C 221.4375 98.570312 222.363281 101.230469 224.488281 102.46875 C 228.429688 104.636719 231.550781 102.78125 234.058594 101.289062 C 235.382812 100.5 236.527344 99.820312 237.484375 99.882812 C 237.773438 99.902344 238.042969 99.753906 238.179688 99.503906 C 238.320312 99.25 238.296875 98.933594 238.128906 98.710938 C 237.5625 97.9375 237.523438 96.601562 237.476562 95.0625 C 237.417969 93.109375 237.351562 90.835938 236.125 88.894531 C 235.519531 87.933594 234.632812 87.054688 233.324219 86.335938 C 231.15625 85.214844 228.414062 85.859375 226.945312 87.835938 C 225.972656 89.144531 225.539062 91.140625 226.777344 93.234375 C 224.351562 93.308594 222.898438 94.746094 222.316406 96.269531 Z M 228.132812 88.714844 C 229.015625 87.523438 230.898438 86.746094 232.628906 87.640625 C 235.832031 89.398438 235.917969 92.300781 236 95.105469 C 236.039062 96.34375 236.074219 97.53125 236.40625 98.527344 C 235.386719 98.78125 234.367188 99.386719 233.304688 100.019531 C 230.894531 101.453125 228.402344 102.933594 225.214844 101.183594 C 223.515625 100.195312 223.164062 98.1875 223.695312 96.800781 C 224.335938 95.121094 226.039062 94.390625 228.246094 94.847656 C 228.5625 94.910156 228.886719 94.761719 229.042969 94.476562 C 229.199219 94.195312 229.152344 93.84375 228.925781 93.609375 C 227.355469 91.984375 227.058594 90.160156 228.132812 88.714844 Z M 229.457031 142.789062 C 228.503906 141.582031 227.675781 140.539062 227.609375 139.578125 C 227.601562 139.453125 227.5625 139.335938 227.5 139.230469 C 227.414062 139.101562 227.292969 138.996094 227.140625 138.9375 C 226.875 138.832031 226.570312 138.894531 226.363281 139.09375 C 225.667969 139.757812 224.355469 139.972656 222.835938 140.222656 C 219.957031 140.691406 216.371094 141.273438 214.742188 145.488281 C 213.917969 147.785156 214.921875 150.417969 217.070312 151.613281 C 218.5 152.40625 220.535156 152.574219 222.445312 151.066406 C 222.84375 153.464844 224.457031 154.71875 226.046875 155.09375 C 228.441406 155.664062 230.953125 154.394531 231.898438 152.125 C 233.523438 147.929688 231.269531 145.082031 229.457031 142.789062 Z M 226.386719 153.65625 C 225.542969 153.457031 224.882812 152.980469 224.445312 152.289062 C 223.976562 151.550781 223.765625 150.5625 223.847656 149.402344 C 223.867188 149.078125 223.679688 148.777344 223.375 148.660156 C 223.074219 148.542969 222.730469 148.636719 222.53125 148.890625 C 221.132812 150.660156 219.359375 151.195312 217.789062 150.320312 C 216.488281 149.597656 215.46875 147.835938 216.125 146.003906 C 217.441406 142.597656 220.304688 142.128906 223.074219 141.679688 C 224.292969 141.480469 225.464844 141.289062 226.410156 140.828125 C 226.796875 141.800781 227.53125 142.734375 228.300781 143.707031 C 230.039062 145.90625 231.839844 148.183594 230.527344 151.574219 C 229.773438 153.386719 227.832031 154 226.386719 153.65625 Z M 226.386719 153.65625 " clip-rule="nonzero"/></clipPath><clipPath id="4a13297fd1"><path d="M 16 28.851562 L 321.246094 28.851562 L 321.246094 165.351562 L 16 165.351562 Z M 16 28.851562 " clip-rule="nonzero"/></clipPath><clipPath id="a46cdac441"><path d="M 16.003906 28.851562 L 321.246094 28.851562 L 321.246094 165.351562 L 16.003906 165.351562 Z M 16.003906 28.851562 " clip-rule="nonzero"/></clipPath><clipPath id="fd74eaa24a"><path d="M 38.484375 28.851562 L 298.761719 28.851562 C 311.175781 28.851562 321.242188 38.949219 321.242188 51.410156 L 321.242188 142.789062 C 321.242188 155.25 311.175781 165.351562 298.761719 165.351562 L 38.484375 165.351562 C 26.066406 165.351562 16.003906 155.25 16.003906 142.789062 L 16.003906 51.410156 C 16.003906 38.949219 26.066406 28.851562 38.484375 28.851562 " clip-rule="nonzero"/></clipPath><clipPath id="3ba0bff483"><path d="M 42.214844 44.496094 L 83.464844 44.496094 L 83.464844 85.746094 L 42.214844 85.746094 Z M 42.214844 44.496094 " clip-rule="nonzero"/></clipPath><clipPath id="6dc1d53dda"><path d="M 91.332031 57.9375 L 212.832031 57.9375 L 212.832031 72.1875 L 91.332031 72.1875 Z M 91.332031 57.9375 " clip-rule="nonzero"/></clipPath><clipPath id="ab5f67ba9e"><path d="M 42.214844 99.140625 L 293.464844 99.140625 L 293.464844 117.890625 L 42.214844 117.890625 Z M 42.214844 99.140625 " clip-rule="nonzero"/></clipPath><clipPath id="2e2cd74098"><path d="M 51.542969 99.140625 L 284.140625 99.140625 C 289.273438 99.140625 293.4375 103.335938 293.4375 108.515625 C 293.4375 113.691406 289.273438 117.890625 284.140625 117.890625 L 51.542969 117.890625 C 46.40625 117.890625 42.246094 113.691406 42.246094 108.515625 C 42.246094 103.335938 46.40625 99.140625 51.542969 99.140625 " clip-rule="nonzero"/></clipPath><clipPath id="917b012e9a"><path d="M 142 172.175781 L 196 172.175781 L 196 190.925781 L 142 190.925781 Z M 142 172.175781 " clip-rule="nonzero"/></clipPath><clipPath id="76669c5243"><path d="M 113.226562 211.117188 L 210.699219 211.117188 L 210.699219 308.617188 L 113.226562 308.617188 Z M 113.226562 211.117188 " clip-rule="nonzero"/></clipPath><clipPath id="0473a3b671"><path d="M 137 199 L 201 199 L 201 256.117188 L 137 256.117188 Z M 137 199 " clip-rule="nonzero"/></clipPath><clipPath id="83311cd3a1"><path d="M 43.171875 126.332031 L 169.171875 126.332031 L 169.171875 145.082031 L 43.171875 145.082031 Z M 43.171875 126.332031 " clip-rule="nonzero"/></clipPath><clipPath id="b322bf88bd"><path d="M 52.507812 126.332031 L 159.835938 126.332031 C 164.984375 126.332031 169.15625 130.53125 169.15625 135.707031 C 169.15625 140.886719 164.984375 145.082031 159.835938 145.082031 L 52.507812 145.082031 C 47.359375 145.082031 43.1875 140.886719 43.1875 135.707031 C 43.1875 130.53125 47.359375 126.332031 52.507812 126.332031 " clip-rule="nonzero"/></clipPath></defs><g clip-path="url(#8c25796529)"><g clip-path="url(#ef3f9d31f6)"><g clip-path="url(#dc38a3d837)"><g clip-path="url(#080023a38f)"><path fill="#000000" d="M 142.699219 153.429688 L 180.894531 131.121094 L 157.78125 91.542969 L 119.582031 113.851562 Z M 142.699219 153.429688 " fill-opacity="1" fill-rule="nonzero"/></g></g></g></g><g clip-path="url(#a791dd698b)"><g clip-path="url(#660c5cd74f)"><g clip-path="url(#cb6970f626)"><g clip-path="url(#862326cd47)"><path fill="#000000" d="M 187.605469 132.128906 L 160.097656 124.871094 L 167.042969 98.558594 L 194.550781 105.816406 Z M 187.605469 132.128906 " fill-opacity="1" fill-rule="nonzero"/></g></g></g></g><g clip-path="url(#daf211295b)"><g clip-path="url(#5d15a661af)"><g clip-path="url(#319bdd3bd1)"><g clip-path="url(#e53bcf79b6)"><path fill="#000000" d="M 198.210938 149.390625 L 236.265625 125.363281 L 211.484375 86.109375 L 173.429688 110.136719 Z M 198.210938 149.390625 " fill-opacity="1" fill-rule="nonzero"/></g></g></g></g><g clip-path="url(#4a13297fd1)"><path fill="#ffffff" d="M 38.484375 28.851562 L 298.761719 28.851562 C 311.175781 28.851562 321.242188 38.949219 321.242188 51.410156 L 321.242188 142.789062 C 321.242188 155.25 311.175781 165.351562 298.761719 165.351562 L 38.484375 165.351562 C 26.066406 165.351562 16.003906 155.25 16.003906 142.789062 L 16.003906 51.410156 C 16.003906 38.949219 26.066406 28.851562 38.484375 28.851562 " fill-opacity="1" fill-rule="nonzero"/></g><g clip-path="url(#a46cdac441)"><g clip-path="url(#fd74eaa24a)"><path stroke-linecap="butt" transform="matrix(0.749396, 0, 0, 0.752066, 16.00255, 28.850309)" fill="none" stroke-linejoin="miter" d="M 29.999936 0.00166714 L 377.316218 0.00166714 C 393.881648 0.00166714 407.314345 13.428223 407.314345 29.997165 L 407.314345 151.501006 C 407.314345 168.069948 393.881648 181.501698 377.316218 181.501698 L 29.999936 181.501698 C 13.429294 181.501698 0.00180935 168.069948 0.00180935 151.501006 L 0.00180935 29.997165 C 0.00180935 13.428223 13.429294 0.00166714 29.999936 0.00166714 " stroke="#000000" stroke-width="10" stroke-opacity="1" stroke-miterlimit="4"/></g></g><g clip-path="url(#3ba0bff483)"><path fill="#6a6fe7" d="M 62.839844 44.496094 C 51.449219 44.496094 42.214844 53.730469 42.214844 65.121094 C 42.214844 76.511719 51.449219 85.746094 62.839844 85.746094 C 74.230469 85.746094 83.464844 76.511719 83.464844 65.121094 C 83.464844 53.730469 74.230469 44.496094 62.839844 44.496094 " fill-opacity="1" fill-rule="nonzero"/></g><g clip-path="url(#6dc1d53dda)"><path fill="#000000" d="M 98.402344 57.9375 L 205.761719 57.9375 C 209.652344 57.9375 212.808594 61.128906 212.808594 65.0625 C 212.808594 68.996094 209.652344 72.1875 205.761719 72.1875 L 98.402344 72.1875 C 94.507812 72.1875 91.351562 68.996094 91.351562 65.0625 C 91.351562 61.128906 94.507812 57.9375 98.402344 57.9375 " fill-opacity="1" fill-rule="nonzero"/></g><g clip-path="url(#ab5f67ba9e)"><g clip-path="url(#2e2cd74098)"><path stroke-linecap="butt" transform="matrix(0.74965, 0, 0, 0.756144, 42.246869, 99.139622)" fill="none" stroke-linejoin="miter" d="M 12.400584 0.00132666 L 322.675515 0.00132666 C 329.522458 0.00132666 335.077133 5.549628 335.077133 12.399766 C 335.077133 19.244738 329.522458 24.798206 322.675515 24.798206 L 12.400584 24.798206 C 5.54843 24.798206 -0.00103373 19.244738 -0.00103373 12.399766 C -0.00103373 5.549628 5.54843 0.00132666 12.400584 0.00132666 " stroke="#000000" stroke-width="10" stroke-opacity="1" stroke-miterlimit="4"/></g></g><g clip-path="url(#917b012e9a)"><path fill="#6a6fe7" d="M 184.621094 190.597656 C 184.03125 190.597656 183.429688 190.40625 182.925781 190.015625 C 181.707031 189.074219 181.484375 187.320312 182.425781 186.101562 L 190.714844 175.347656 C 191.648438 174.128906 193.402344 173.894531 194.617188 174.84375 C 195.835938 175.789062 196.058594 177.539062 195.117188 178.757812 L 186.828125 189.515625 C 186.28125 190.226562 185.457031 190.597656 184.621094 190.597656 Z M 153.949219 190.597656 C 153.117188 190.597656 152.292969 190.222656 151.746094 189.511719 L 143.457031 178.757812 C 142.515625 177.539062 142.742188 175.789062 143.957031 174.84375 C 145.175781 173.90625 146.921875 174.128906 147.863281 175.347656 L 156.15625 186.101562 C 157.09375 187.320312 156.871094 189.074219 155.65625 190.015625 C 155.144531 190.410156 154.546875 190.597656 153.949219 190.597656 Z M 169.199219 189.320312 C 167.664062 189.320312 166.417969 188.070312 166.417969 186.53125 L 166.417969 175.371094 C 166.417969 173.828125 167.664062 172.578125 169.199219 172.578125 C 170.738281 172.578125 171.984375 173.828125 171.984375 175.371094 L 171.984375 186.53125 C 171.984375 188.070312 170.738281 189.320312 169.199219 189.320312 Z M 169.199219 189.320312 " fill-opacity="1" fill-rule="nonzero"/></g><g clip-path="url(#76669c5243)"><path fill="#040606" d="M 125.414062 272.78125 L 149.070312 296.429688 L 141.078125 304.421875 L 117.429688 280.765625 Z M 202.632812 251.488281 C 203.84375 251.488281 205.046875 251.957031 205.988281 252.902344 C 206.933594 253.84375 207.261719 254.855469 207.21875 256.058594 C 207.175781 257.253906 206.675781 258.621094 205.800781 259.867188 C 202.371094 264.722656 198.425781 272.003906 194.511719 277.664062 C 191.457031 282.089844 187.753906 284.242188 182.863281 284.242188 L 158.496094 284.242188 C 154.425781 284.242188 152.039062 286.492188 150.296875 288.234375 L 148.046875 290.492188 L 131.359375 273.796875 L 138.828125 266.324219 C 142.308594 262.847656 145.148438 259.878906 151.527344 259.878906 L 179.390625 259.878906 C 182.308594 259.878906 184.601562 262.171875 184.601562 265.097656 C 184.601562 268.015625 182.308594 270.324219 179.390625 270.324219 L 163.707031 270.324219 C 161.386719 270.324219 161.386719 273.804688 163.707031 273.804688 L 179.390625 273.804688 C 184.175781 273.804688 188.082031 269.882812 188.082031 265.097656 C 188.082031 264.769531 188.0625 264.449219 188.027344 264.128906 L 199.253906 252.902344 C 200.199219 251.957031 201.417969 251.488281 202.632812 251.488281 Z M 202.621094 248.035156 C 200.511719 248.035156 198.398438 248.839844 196.796875 250.441406 L 186.738281 260.5 C 185.199219 258.042969 182.488281 256.398438 179.390625 256.398438 L 151.527344 256.398438 C 143.980469 256.398438 139.859375 260.378906 136.378906 263.859375 L 128.902344 271.335938 L 126.648438 269.085938 C 125.964844 268.402344 124.867188 268.402344 124.191406 269.078125 C 124.183594 269.085938 124.183594 269.085938 124.183594 269.085938 L 113.746094 279.527344 C 113.058594 280.203125 113.050781 281.308594 113.726562 281.992188 C 113.734375 281.992188 113.734375 281.992188 113.746094 282 L 139.851562 308.109375 C 140.535156 308.792969 141.640625 308.792969 142.316406 308.109375 L 152.757812 297.660156 C 153.441406 296.984375 153.441406 295.886719 152.765625 295.203125 L 150.503906 292.953125 L 152.757812 290.699219 C 154.503906 288.953125 155.585938 287.730469 158.496094 287.730469 L 182.863281 287.730469 C 188.84375 287.730469 193.835938 284.761719 197.378906 279.636719 C 201.445312 273.742188 205.445312 266.414062 208.648438 261.875 C 209.84375 260.171875 210.621094 258.207031 210.699219 256.179688 C 210.777344 254.15625 210.066406 252.050781 208.457031 250.441406 C 206.847656 248.839844 204.734375 248.035156 202.621094 248.035156 Z M 160.859375 214.582031 C 163.238281 214.582031 165.628906 215.507812 167.460938 217.34375 L 167.703125 217.585938 C 168.390625 218.257812 169.488281 218.257812 170.164062 217.585938 L 170.40625 217.34375 C 174.085938 213.664062 179.9375 213.671875 183.613281 217.34375 C 187.292969 221.03125 187.292969 226.871094 183.613281 230.558594 L 168.941406 245.238281 L 154.253906 230.558594 C 150.574219 226.871094 150.574219 221.03125 154.253906 217.34375 C 156.089844 215.507812 158.476562 214.582031 160.859375 214.582031 Z M 160.859375 211.117188 C 157.578125 211.117188 154.296875 212.363281 151.804688 214.867188 C 146.800781 219.871094 146.800781 227.988281 151.804688 232.992188 L 167.410156 248.597656 C 168.007812 249.59375 169.382812 249.742188 170.179688 248.902344 L 186.074219 232.992188 C 191.066406 227.988281 191.066406 219.871094 186.074219 214.867188 C 183.570312 212.375 180.300781 211.117188 177.011719 211.117188 C 174.144531 211.117188 171.289062 212.070312 168.941406 213.976562 C 166.597656 212.070312 163.722656 211.117188 160.859375 211.117188 " fill-opacity="1" fill-rule="nonzero"/></g><g clip-path="url(#0473a3b671)"><path fill="#000000" d="M 200.277344 213.289062 C 196.726562 195.007812 174.484375 194.699219 168.996094 211.792969 C 163.511719 194.699219 141.265625 195.007812 137.71875 213.289062 C 134.496094 229.878906 168.996094 256.050781 168.996094 256.050781 C 168.996094 256.050781 203.496094 229.878906 200.277344 213.289062 Z M 200.277344 213.289062 " fill-opacity="1" fill-rule="nonzero"/></g><g clip-path="url(#83311cd3a1)"><g clip-path="url(#b322bf88bd)"><path stroke-linecap="butt" transform="matrix(0.751888, 0, 0, 0.756144, 43.186953, 126.333861)" fill="none" stroke-linejoin="miter" d="M 12.396607 -0.00241979 L 155.141446 -0.00241979 C 161.988793 -0.00241979 167.537325 5.551048 167.537325 12.39602 C 167.537325 19.246157 161.988793 24.794459 155.141446 24.794459 L 12.396607 24.794459 C 5.549261 24.794459 0.000727865 19.246157 0.000727865 12.39602 C 0.000727865 5.551048 5.549261 -0.00241979 12.396607 -0.00241979 " stroke="#000000" stroke-width="10" stroke-opacity="1" stroke-miterlimit="4"/></g></g></svg>