<svg xmlns="http://www.w3.org/2000/svg" xmlns:xlink="http://www.w3.org/1999/xlink" width="450" zoomAndPan="magnify" viewBox="0 0 337.5 337.500003" height="450" preserveAspectRatio="xMidYMid meet" version="1.0"><defs><clipPath id="89e3bdb26e"><path d="M 144.667969 107.351562 L 327.667969 107.351562 L 327.667969 247.601562 L 144.667969 247.601562 Z M 144.667969 107.351562 " clip-rule="nonzero"/></clipPath><clipPath id="4c74839142"><path d="M 144.667969 107.351562 L 327.667969 107.351562 L 327.667969 247.601562 L 144.667969 247.601562 Z M 144.667969 107.351562 " clip-rule="nonzero"/></clipPath><clipPath id="60d63735c7"><path d="M 167.160156 107.351562 L 305.171875 107.351562 C 317.597656 107.351562 327.667969 117.414062 327.667969 129.828125 L 327.667969 225.121094 C 327.667969 237.535156 317.597656 247.601562 305.171875 247.601562 L 167.160156 247.601562 C 154.734375 247.601562 144.667969 237.535156 144.667969 225.121094 L 144.667969 129.828125 C 144.667969 117.414062 154.734375 107.351562 167.160156 107.351562 " clip-rule="nonzero"/></clipPath><clipPath id="eda8585f68"><path d="M 173.949219 124.808594 L 215.199219 124.808594 L 215.199219 166.058594 L 173.949219 166.058594 Z M 173.949219 124.808594 " clip-rule="nonzero"/></clipPath><clipPath id="57199d5e6e"><path d="M 223.109375 138.277344 L 310.859375 138.277344 L 310.859375 152.527344 L 223.109375 152.527344 Z M 223.109375 138.277344 " clip-rule="nonzero"/></clipPath><clipPath id="6add770c72"><path d="M 10 27.46875 L 327.773438 27.46875 L 327.773438 57 L 10 57 Z M 10 27.46875 " clip-rule="nonzero"/></clipPath><clipPath id="9494926692"><path d="M 143 52 L 195 52 L 195 99.46875 L 143 99.46875 Z M 143 52 " clip-rule="nonzero"/></clipPath><clipPath id="3339cd9df8"><path d="M 9.773438 169.648438 L 192.773438 169.648438 L 192.773438 309.898438 L 9.773438 309.898438 Z M 9.773438 169.648438 " clip-rule="nonzero"/></clipPath><clipPath id="13de242a75"><path d="M 9.773438 169.648438 L 192.773438 169.648438 L 192.773438 309.898438 L 9.773438 309.898438 Z M 9.773438 169.648438 " clip-rule="nonzero"/></clipPath><clipPath id="a705226e58"><path d="M 32.265625 169.648438 L 170.28125 169.648438 C 182.703125 169.648438 192.773438 179.714844 192.773438 192.128906 L 192.773438 287.417969 C 192.773438 299.835938 182.703125 309.898438 170.28125 309.898438 L 32.265625 309.898438 C 19.84375 309.898438 9.773438 299.835938 9.773438 287.417969 L 9.773438 192.128906 C 9.773438 179.714844 19.84375 169.648438 32.265625 169.648438 " clip-rule="nonzero"/></clipPath><clipPath id="0b701d7423"><path d="M 35.984375 188.523438 L 77.234375 188.523438 L 77.234375 229.773438 L 35.984375 229.773438 Z M 35.984375 188.523438 " clip-rule="nonzero"/></clipPath><clipPath id="1a0a5bf8a7"><path d="M 85.105469 202.011719 L 172.855469 202.011719 L 172.855469 216.261719 L 85.105469 216.261719 Z M 85.105469 202.011719 " clip-rule="nonzero"/></clipPath><clipPath id="7a4d08cc05"><path d="M 64.863281 271 L 137.613281 271 L 137.613281 299.253906 L 64.863281 299.253906 Z M 64.863281 271 " clip-rule="nonzero"/></clipPath><clipPath id="7cad8a4f94"><path d="M 98 225.003906 L 102 225.003906 L 102 232 L 98 232 Z M 98 225.003906 " clip-rule="nonzero"/></clipPath><clipPath id="a55442289d"><path d="M 200.542969 174.769531 L 271.707031 174.769531 L 271.707031 232.519531 L 200.542969 232.519531 Z M 200.542969 174.769531 " clip-rule="nonzero"/></clipPath></defs><g clip-path="url(#89e3bdb26e)"><path fill="#ffffff" d="M 167.160156 107.351562 L 305.171875 107.351562 C 317.597656 107.351562 327.667969 117.414062 327.667969 129.828125 L 327.667969 225.121094 C 327.667969 237.535156 317.597656 247.601562 305.171875 247.601562 L 167.160156 247.601562 C 154.734375 247.601562 144.667969 237.535156 144.667969 225.121094 L 144.667969 129.828125 C 144.667969 117.414062 154.734375 107.351562 167.160156 107.351562 " fill-opacity="1" fill-rule="nonzero"/></g><g clip-path="url(#4c74839142)"><g clip-path="url(#60d63735c7)"><path stroke-linecap="butt" transform="matrix(0.74976, 0, 0, 0.749311, 144.666104, 107.350802)" fill="none" stroke-linejoin="miter" d="M 30.001675 0.0010144 L 214.076232 0.0010144 C 230.649246 0.0010144 244.080629 13.430013 244.080629 29.997311 L 244.080629 157.171392 C 244.080629 173.738689 230.649246 187.172902 214.076232 187.172902 L 30.001675 187.172902 C 13.42866 187.172902 0.00248685 173.738689 0.00248685 157.171392 L 0.00248685 29.997311 C 0.00248685 13.430013 13.42866 0.0010144 30.001675 0.0010144 " stroke="#000000" stroke-width="10" stroke-opacity="1" stroke-miterlimit="4"/></g></g><g clip-path="url(#eda8585f68)"><path fill="#6a6fe7" d="M 194.574219 124.808594 C 183.179688 124.808594 173.949219 134.042969 173.949219 145.433594 C 173.949219 156.824219 183.179688 166.058594 194.574219 166.058594 C 205.964844 166.058594 215.199219 156.824219 215.199219 145.433594 C 215.199219 134.042969 205.964844 124.808594 194.574219 124.808594 " fill-opacity="1" fill-rule="nonzero"/></g><g clip-path="url(#57199d5e6e)"><path fill="#000000" d="M 230.195312 138.277344 L 303.777344 138.277344 C 307.679688 138.277344 310.847656 141.46875 310.847656 145.402344 C 310.847656 149.339844 307.679688 152.527344 303.777344 152.527344 L 230.195312 152.527344 C 226.289062 152.527344 223.121094 149.339844 223.121094 145.402344 C 223.121094 141.46875 226.289062 138.277344 230.195312 138.277344 " fill-opacity="1" fill-rule="nonzero"/></g><g clip-path="url(#6add770c72)"><path fill="#000000" d="M 168.765625 56.023438 C 102.933594 56.023438 42.550781 46.078125 11.226562 30.070312 C 11.078125 29.988281 10.949219 29.882812 10.84375 29.75 C 10.738281 29.617188 10.660156 29.472656 10.609375 29.308594 C 10.558594 29.144531 10.542969 28.980469 10.558594 28.8125 C 10.570312 28.640625 10.617188 28.480469 10.695312 28.332031 C 10.773438 28.179688 10.875 28.046875 11.003906 27.9375 C 11.128906 27.824219 11.273438 27.742188 11.433594 27.6875 C 11.59375 27.632812 11.757812 27.609375 11.929688 27.621094 C 12.097656 27.628906 12.257812 27.671875 12.410156 27.746094 C 43.40625 43.574219 103.324219 53.410156 168.765625 53.410156 C 234.207031 53.410156 294.125 43.574219 325.125 27.746094 C 325.28125 27.65625 325.445312 27.597656 325.625 27.578125 C 325.800781 27.554688 325.976562 27.570312 326.148438 27.621094 C 326.320312 27.671875 326.476562 27.753906 326.613281 27.871094 C 326.75 27.984375 326.859375 28.121094 326.941406 28.28125 C 327.019531 28.441406 327.066406 28.613281 327.078125 28.792969 C 327.089844 28.96875 327.066406 29.144531 327.003906 29.3125 C 326.945312 29.484375 326.855469 29.632812 326.734375 29.765625 C 326.609375 29.894531 326.46875 30 326.304688 30.070312 C 294.964844 46.078125 234.597656 56.023438 168.765625 56.023438 Z M 168.765625 56.023438 " fill-opacity="1" fill-rule="nonzero"/></g><path fill="#6a6fe7" d="M 100.960938 96.007812 L 130.726562 51.839844 L 80.066406 46.980469 Z M 100.960938 96.007812 " fill-opacity="1" fill-rule="nonzero"/><path fill="#6a6fe7" d="M 207.859375 51.101562 L 237.488281 95.367188 L 258.53125 46.40625 Z M 207.859375 51.101562 " fill-opacity="1" fill-rule="nonzero"/><path fill="#000000" d="M 31.648438 83.097656 L 68.632812 44.824219 L 19.601562 31.15625 Z M 31.648438 83.097656 " fill-opacity="1" fill-rule="nonzero"/><path fill="#000000" d="M 270.582031 44.824219 L 307.566406 83.097656 L 319.617188 30.5 Z M 270.582031 44.824219 " fill-opacity="1" fill-rule="nonzero"/><g clip-path="url(#9494926692)"><path fill="#000000" d="M 167.9375 99.429688 L 194.210938 53.082031 L 143.328125 52.171875 Z M 167.9375 99.429688 " fill-opacity="1" fill-rule="nonzero"/></g><g clip-path="url(#3339cd9df8)"><path fill="#000000" d="M 32.265625 169.648438 L 170.28125 169.648438 C 182.703125 169.648438 192.773438 179.714844 192.773438 192.128906 L 192.773438 287.417969 C 192.773438 299.835938 182.703125 309.898438 170.28125 309.898438 L 32.265625 309.898438 C 19.84375 309.898438 9.773438 299.835938 9.773438 287.417969 L 9.773438 192.128906 C 9.773438 179.714844 19.84375 169.648438 32.265625 169.648438 " fill-opacity="1" fill-rule="nonzero"/></g><g clip-path="url(#13de242a75)"><g clip-path="url(#a705226e58)"><path stroke-linecap="butt" transform="matrix(0.74976, 0, 0, 0.749311, 9.772029, 169.649072)" fill="none" stroke-linejoin="miter" d="M 30.001066 -0.000846331 L 214.080833 -0.000846331 C 230.648637 -0.000846331 244.080021 13.433366 244.080021 30.000664 L 244.080021 157.169531 C 244.080021 173.742042 230.648637 187.171041 214.080833 187.171041 L 30.001066 187.171041 C 13.433262 187.171041 0.0018784 173.742042 0.0018784 157.169531 L 0.0018784 30.000664 C 0.0018784 13.433366 13.433262 -0.000846331 30.001066 -0.000846331 " stroke="#000000" stroke-width="10" stroke-opacity="1" stroke-miterlimit="4"/></g></g><g clip-path="url(#0b701d7423)"><path fill="#6a6fe7" d="M 56.609375 188.523438 C 45.21875 188.523438 35.984375 197.757812 35.984375 209.148438 C 35.984375 220.539062 45.21875 229.773438 56.609375 229.773438 C 68 229.773438 77.234375 220.539062 77.234375 209.148438 C 77.234375 197.757812 68 188.523438 56.609375 188.523438 " fill-opacity="1" fill-rule="nonzero"/></g><g clip-path="url(#1a0a5bf8a7)"><path fill="#ffffff" d="M 92.191406 202.011719 L 165.769531 202.011719 C 169.675781 202.011719 172.84375 205.203125 172.84375 209.136719 C 172.84375 213.074219 169.675781 216.261719 165.769531 216.261719 L 92.191406 216.261719 C 88.285156 216.261719 85.117188 213.074219 85.117188 209.136719 C 85.117188 205.203125 88.285156 202.011719 92.191406 202.011719 " fill-opacity="1" fill-rule="nonzero"/></g><g clip-path="url(#7a4d08cc05)"><path fill="#ffffff" d="M 136.082031 299.253906 L 66.390625 299.253906 C 65.554688 299.253906 64.875 298.574219 64.875 297.738281 L 64.875 279.554688 C 64.875 275.378906 68.277344 271.980469 72.453125 271.980469 L 130.023438 271.980469 C 134.199219 271.980469 137.597656 275.378906 137.597656 279.554688 L 137.597656 297.738281 C 137.597656 298.574219 136.914062 299.253906 136.082031 299.253906 Z M 67.90625 296.222656 L 134.566406 296.222656 L 134.566406 279.554688 C 134.566406 277.050781 132.527344 275.011719 130.023438 275.011719 L 72.453125 275.011719 C 69.945312 275.011719 67.90625 277.050781 67.90625 279.554688 Z M 67.90625 296.222656 " fill-opacity="1" fill-rule="nonzero"/></g><path fill="#ffffff" d="M 126.992188 275.011719 L 75.480469 275.011719 C 74.644531 275.011719 73.96875 274.328125 73.96875 273.496094 L 73.96875 264.402344 C 73.96875 260.226562 77.367188 256.828125 81.542969 256.828125 L 120.933594 256.828125 C 125.109375 256.828125 128.507812 260.226562 128.507812 264.402344 L 128.507812 273.496094 C 128.507812 274.328125 127.824219 275.011719 126.992188 275.011719 Z M 76.996094 271.980469 L 125.476562 271.980469 L 125.476562 264.402344 C 125.476562 261.898438 123.4375 259.855469 120.933594 259.855469 L 81.542969 259.855469 C 79.035156 259.855469 76.996094 261.898438 76.996094 264.402344 Z M 76.996094 271.980469 " fill-opacity="1" fill-rule="nonzero"/><path fill="#ffffff" d="M 117.902344 259.855469 L 84.570312 259.855469 C 83.734375 259.855469 83.058594 259.179688 83.058594 258.339844 L 83.058594 252.28125 C 83.058594 248.105469 86.457031 244.703125 90.632812 244.703125 L 111.84375 244.703125 C 116.019531 244.703125 119.417969 248.105469 119.417969 252.28125 L 119.417969 258.339844 C 119.417969 259.179688 118.734375 259.855469 117.902344 259.855469 Z M 86.085938 256.828125 L 116.386719 256.828125 L 116.386719 252.28125 C 116.386719 249.773438 114.347656 247.734375 111.84375 247.734375 L 90.632812 247.734375 C 88.125 247.734375 86.085938 249.773438 86.085938 252.28125 Z M 86.085938 256.828125 " fill-opacity="1" fill-rule="nonzero"/><path fill="#ffffff" d="M 99.722656 246.21875 C 98.886719 246.21875 98.207031 245.539062 98.207031 244.703125 L 98.207031 235.613281 C 98.207031 234.777344 98.886719 234.097656 99.722656 234.097656 C 100.558594 234.097656 101.238281 234.777344 101.238281 235.613281 L 101.238281 244.703125 C 101.238281 245.539062 100.558594 246.21875 99.722656 246.21875 Z M 99.722656 246.21875 " fill-opacity="1" fill-rule="nonzero"/><g clip-path="url(#7cad8a4f94)"><path fill="#ffffff" d="M 99.722656 231.066406 C 98.886719 231.066406 98.207031 230.386719 98.207031 229.550781 L 98.207031 226.519531 C 98.207031 225.683594 98.886719 225.003906 99.722656 225.003906 C 100.558594 225.003906 101.238281 225.683594 101.238281 226.519531 L 101.238281 229.550781 C 101.238281 230.386719 100.558594 231.066406 99.722656 231.066406 Z M 99.722656 231.066406 " fill-opacity="1" fill-rule="nonzero"/></g><path fill="#ffffff" d="M 131.539062 291.679688 C 129.03125 291.679688 126.992188 289.640625 126.992188 287.132812 C 126.992188 286.300781 126.3125 285.617188 125.476562 285.617188 C 124.644531 285.617188 123.960938 286.300781 123.960938 287.132812 C 123.960938 289.640625 121.921875 291.679688 119.417969 291.679688 C 116.910156 291.679688 114.871094 289.640625 114.871094 287.132812 C 114.871094 286.300781 114.191406 285.617188 113.355469 285.617188 C 112.523438 285.617188 111.84375 286.300781 111.84375 287.132812 C 111.84375 289.640625 109.804688 291.679688 107.296875 291.679688 C 104.792969 291.679688 102.753906 289.640625 102.753906 287.132812 C 102.753906 286.300781 102.074219 285.617188 101.238281 285.617188 C 100.402344 285.617188 99.722656 286.300781 99.722656 287.132812 C 99.722656 289.640625 97.683594 291.679688 95.175781 291.679688 C 92.671875 291.679688 90.632812 289.640625 90.632812 287.132812 C 90.632812 286.300781 89.953125 285.617188 89.117188 285.617188 C 88.28125 285.617188 87.601562 286.300781 87.601562 287.132812 C 87.601562 289.640625 85.5625 291.679688 83.058594 291.679688 C 80.550781 291.679688 78.511719 289.640625 78.511719 287.132812 C 78.511719 286.300781 77.832031 285.617188 76.996094 285.617188 C 76.160156 285.617188 75.480469 286.300781 75.480469 287.132812 C 75.480469 289.640625 73.441406 291.679688 70.9375 291.679688 C 68.429688 291.679688 66.390625 289.640625 66.390625 287.132812 C 66.390625 286.300781 67.070312 285.617188 67.90625 285.617188 C 68.742188 285.617188 69.421875 286.300781 69.421875 287.132812 C 69.421875 287.964844 70.101562 288.648438 70.9375 288.648438 C 71.773438 288.648438 72.453125 287.964844 72.453125 287.132812 C 72.453125 284.625 74.492188 282.585938 76.996094 282.585938 C 79.503906 282.585938 81.542969 284.625 81.542969 287.132812 C 81.542969 287.964844 82.222656 288.648438 83.058594 288.648438 C 83.894531 288.648438 84.570312 287.964844 84.570312 287.132812 C 84.570312 284.625 86.609375 282.585938 89.117188 282.585938 C 91.621094 282.585938 93.664062 284.625 93.664062 287.132812 C 93.664062 287.964844 94.339844 288.648438 95.175781 288.648438 C 96.011719 288.648438 96.691406 287.964844 96.691406 287.132812 C 96.691406 284.625 98.730469 282.585938 101.238281 282.585938 C 103.742188 282.585938 105.78125 284.625 105.78125 287.132812 C 105.78125 287.964844 106.464844 288.648438 107.296875 288.648438 C 108.128906 288.648438 108.8125 287.964844 108.8125 287.132812 C 108.8125 284.625 110.851562 282.585938 113.355469 282.585938 C 115.863281 282.585938 117.902344 284.625 117.902344 287.132812 C 117.902344 287.964844 118.585938 288.648438 119.417969 288.648438 C 120.25 288.648438 120.933594 287.964844 120.933594 287.132812 C 120.933594 284.625 122.972656 282.585938 125.476562 282.585938 C 127.984375 282.585938 130.023438 284.625 130.023438 287.132812 C 130.023438 287.964844 130.703125 288.648438 131.539062 288.648438 C 132.371094 288.648438 133.050781 287.964844 133.050781 287.132812 C 133.050781 286.300781 133.734375 285.617188 134.566406 285.617188 C 135.402344 285.617188 136.082031 286.300781 136.082031 287.132812 C 136.082031 289.640625 134.042969 291.679688 131.539062 291.679688 Z M 131.539062 291.679688 " fill-opacity="1" fill-rule="nonzero"/><path fill="#ffffff" d="M 85.449219 268.304688 C 82.289062 268.304688 79.320312 268.0625 76.628906 267.386719 C 75.816406 267.183594 75.324219 266.359375 75.527344 265.550781 C 75.726562 264.734375 76.546875 264.246094 77.363281 264.453125 C 82.988281 265.855469 90.300781 265.1875 98.046875 264.480469 C 106.535156 263.707031 116.164062 262.828125 125.726562 264.421875 C 126.546875 264.558594 127.109375 265.339844 126.972656 266.164062 C 126.832031 266.988281 126.042969 267.550781 125.230469 267.410156 C 116.046875 265.882812 106.628906 266.734375 98.324219 267.492188 C 93.832031 267.90625 89.484375 268.304688 85.449219 268.304688 Z M 85.449219 268.304688 " fill-opacity="1" fill-rule="nonzero"/><g clip-path="url(#a55442289d)"><path fill="#000000" d="M 269.285156 199.4375 C 269.285156 206.261719 255.554688 210.269531 241.132812 211.027344 L 241.132812 207.652344 C 241.132812 206.976562 240.589844 206.433594 239.917969 206.433594 L 232.335938 206.433594 C 231.664062 206.433594 231.121094 206.976562 231.121094 207.652344 L 231.121094 211.027344 C 216.699219 210.269531 202.96875 206.261719 202.96875 199.4375 L 202.96875 189.15625 C 202.96875 187.074219 204.660156 185.378906 206.734375 185.378906 L 265.519531 185.378906 C 267.59375 185.378906 269.285156 187.074219 269.285156 189.15625 Z M 233.546875 216.222656 L 233.546875 208.867188 L 238.707031 208.867188 L 238.707031 216.222656 Z M 269.285156 226.3125 C 269.285156 228.398438 267.59375 230.09375 265.519531 230.09375 L 206.734375 230.09375 C 204.660156 230.09375 202.96875 228.398438 202.96875 226.3125 L 202.96875 205.101562 C 204.902344 207.15625 207.96875 208.910156 212.113281 210.296875 C 217.289062 212.027344 223.910156 213.125 231.121094 213.472656 L 231.121094 217.4375 C 231.121094 218.109375 231.664062 218.65625 232.335938 218.65625 L 239.917969 218.65625 C 240.589844 218.65625 241.132812 218.109375 241.132812 217.4375 L 241.132812 213.476562 C 253.167969 212.902344 264.480469 210.234375 269.285156 205.136719 Z M 225.3125 179.554688 C 225.3125 178.257812 226.363281 177.203125 227.652344 177.203125 L 244.601562 177.203125 C 245.890625 177.203125 246.941406 178.257812 246.941406 179.554688 L 246.941406 182.945312 L 225.3125 182.945312 Z M 265.519531 182.945312 L 249.367188 182.945312 L 249.367188 179.554688 C 249.367188 176.917969 247.230469 174.769531 244.601562 174.769531 L 227.652344 174.769531 C 225.023438 174.769531 222.886719 176.917969 222.886719 179.554688 L 222.886719 182.945312 L 206.734375 182.945312 C 203.320312 182.945312 200.542969 185.730469 200.542969 189.15625 L 200.542969 226.3125 C 200.542969 229.738281 203.320312 232.527344 206.734375 232.527344 L 265.519531 232.527344 C 268.929688 232.527344 271.707031 229.738281 271.707031 226.3125 L 271.707031 189.15625 C 271.707031 185.730469 268.929688 182.945312 265.519531 182.945312 " fill-opacity="1" fill-rule="nonzero"/></g></svg>