<svg xmlns="http://www.w3.org/2000/svg" xmlns:xlink="http://www.w3.org/1999/xlink" width="450" zoomAndPan="magnify" viewBox="0 0 337.5 337.500003" height="450" preserveAspectRatio="xMidYMid meet" version="1.0"><defs><clipPath id="f4f990d246"><path d="M 192.375 160.960938 L 310 160.960938 L 310 279 L 192.375 279 Z M 192.375 160.960938 " clip-rule="nonzero"/></clipPath><clipPath id="f86857e697"><path d="M 217 180 L 335.625 180 L 335.625 298.210938 L 217 298.210938 Z M 217 180 " clip-rule="nonzero"/></clipPath><clipPath id="ca9138fc48"><path d="M 2.042969 39.359375 L 249.019531 39.359375 L 249.019531 182.820312 L 2.042969 182.820312 Z M 2.042969 39.359375 " clip-rule="nonzero"/></clipPath><clipPath id="20e4f5fcf6"><path d="M 17.335938 95.515625 L 61.78125 95.515625 L 61.78125 126.457031 L 17.335938 126.457031 Z M 17.335938 95.515625 " clip-rule="nonzero"/></clipPath><clipPath id="0952cbccbb"><path d="M 39.457031 149.464844 L 93.464844 149.464844 L 93.464844 162.96875 L 39.457031 162.96875 Z M 39.457031 149.464844 " clip-rule="nonzero"/></clipPath><clipPath id="7f2fc3c3c5"><path d="M 100.105469 149.464844 L 177.179688 149.464844 L 177.179688 162.96875 L 100.105469 162.96875 Z M 100.105469 149.464844 " clip-rule="nonzero"/></clipPath><clipPath id="42f14e0d37"><path d="M 71 107.113281 L 229 107.113281 L 229 114.988281 L 71 114.988281 Z M 71 107.113281 " clip-rule="nonzero"/></clipPath><clipPath id="10601fef1f"><path d="M 215.707031 60.074219 L 229.769531 60.074219 L 229.769531 82 L 215.707031 82 Z M 215.707031 60.074219 " clip-rule="nonzero"/></clipPath></defs><g clip-path="url(#f4f990d246)"><path fill="#100f0d" d="M 273.847656 274.601562 L 208.238281 274.601562 C 201.480469 274.601562 195.984375 269.113281 195.984375 262.363281 L 195.984375 176.792969 C 195.984375 170.042969 201.480469 164.550781 208.238281 164.550781 L 293.867188 164.550781 C 300.621094 164.550781 306.117188 170.042969 306.117188 176.792969 L 306.117188 228.921875 C 306.117188 229.910156 306.921875 230.710938 307.910156 230.710938 C 308.902344 230.710938 309.703125 229.910156 309.703125 228.921875 L 309.703125 176.792969 C 309.703125 168.066406 302.597656 160.964844 293.867188 160.964844 L 208.238281 160.964844 C 199.503906 160.964844 192.398438 168.066406 192.398438 176.792969 L 192.398438 262.363281 C 192.398438 271.089844 199.503906 278.1875 208.238281 278.1875 L 273.847656 278.1875 C 274.839844 278.1875 275.640625 277.382812 275.640625 276.394531 C 275.640625 275.40625 274.839844 274.601562 273.847656 274.601562 " fill-opacity="1" fill-rule="nonzero"/></g><g clip-path="url(#f86857e697)"><path fill="#100f0d" d="M 312.316406 263.898438 C 311.835938 264.113281 311.46875 264.53125 311.324219 265.042969 C 311.175781 265.550781 311.261719 266.097656 311.558594 266.539062 L 326.664062 288.980469 L 319.308594 293.925781 L 304.199219 271.484375 C 303.902344 271.046875 303.425781 270.757812 302.902344 270.703125 C 302.835938 270.695312 302.773438 270.691406 302.710938 270.691406 C 302.25 270.691406 301.800781 270.871094 301.46875 271.195312 L 287.6875 284.476562 L 279.804688 227.308594 L 329.824219 256.148438 Z M 276.359375 216.878906 L 266.398438 216.878906 L 267.976562 208.113281 L 278.515625 208.113281 Z M 273.648438 227.902344 L 264.417969 227.902344 L 265.753906 220.464844 L 275.476562 220.464844 Z M 262.757812 216.878906 L 253.347656 216.878906 L 253.347656 208.113281 L 264.335938 208.113281 Z M 260.773438 227.902344 L 253.347656 227.902344 L 253.347656 220.464844 L 262.113281 220.464844 Z M 249.761719 204.527344 L 238.753906 204.527344 L 237.261719 196.242188 L 249.761719 196.242188 Z M 249.761719 216.878906 L 240.976562 216.878906 L 239.398438 208.113281 L 249.761719 208.113281 Z M 249.761719 227.902344 L 242.960938 227.902344 L 241.621094 220.464844 L 249.761719 220.464844 Z M 230.652344 227.902344 L 228.5 220.464844 L 237.976562 220.464844 L 239.316406 227.902344 Z M 227.460938 216.878906 L 224.929688 208.113281 L 235.757812 208.113281 L 237.332031 216.878906 Z M 221.496094 196.242188 L 233.621094 196.242188 L 235.109375 204.527344 L 223.890625 204.527344 Z M 253.347656 196.242188 L 266.472656 196.242188 L 264.980469 204.527344 L 253.347656 204.527344 Z M 270.113281 196.242188 L 281.433594 196.242188 L 279.398438 204.527344 L 268.621094 204.527344 Z M 268.3125 256.644531 C 266.71875 256.644531 265.425781 255.351562 265.425781 253.757812 C 265.425781 252.167969 266.71875 250.871094 268.3125 250.871094 C 269.90625 250.871094 271.203125 252.167969 271.203125 253.757812 C 271.203125 255.351562 269.90625 256.644531 268.3125 256.644531 Z M 232.132812 256.644531 C 230.542969 256.644531 229.246094 255.351562 229.246094 253.757812 C 229.246094 252.167969 230.542969 250.871094 232.132812 250.871094 C 233.726562 250.871094 235.023438 252.167969 235.023438 253.757812 C 235.023438 255.351562 233.726562 256.644531 232.132812 256.644531 Z M 334.671875 254.804688 L 278.667969 222.515625 L 287.316406 187.339844 C 287.730469 185.652344 289.238281 184.46875 290.980469 184.46875 L 297.492188 184.46875 C 298.480469 184.46875 299.285156 183.667969 299.285156 182.679688 C 299.285156 181.691406 298.480469 180.886719 297.492188 180.886719 L 290.980469 180.886719 C 287.582031 180.886719 284.644531 183.191406 283.832031 186.484375 L 282.316406 192.65625 L 219.109375 192.65625 C 218.546875 192.65625 218.015625 192.921875 217.675781 193.371094 C 217.339844 193.824219 217.230469 194.40625 217.386719 194.945312 L 227.582031 230.191406 C 227.804688 230.960938 228.503906 231.488281 229.304688 231.488281 L 272.765625 231.488281 L 268.902344 247.210938 L 232.703125 247.210938 C 232.523438 247.210938 232.351562 247.238281 232.1875 247.289062 C 232.167969 247.289062 232.152344 247.289062 232.132812 247.289062 C 228.5625 247.289062 225.660156 250.191406 225.660156 253.757812 C 225.660156 257.324219 228.5625 260.230469 232.132812 260.230469 C 235.703125 260.230469 238.609375 257.324219 238.609375 253.757812 C 238.609375 252.691406 238.347656 251.683594 237.886719 250.796875 L 262.558594 250.796875 C 262.097656 251.683594 261.839844 252.691406 261.839844 253.757812 C 261.839844 257.324219 264.742188 260.230469 268.3125 260.230469 C 271.882812 260.230469 274.785156 257.324219 274.785156 253.757812 C 274.785156 251.667969 273.789062 249.808594 272.246094 248.621094 L 276.652344 230.707031 L 284.617188 288.457031 C 284.707031 289.125 285.167969 289.6875 285.804688 289.90625 C 286.441406 290.125 287.148438 289.972656 287.636719 289.503906 L 302.417969 275.257812 L 317.332031 297.414062 C 317.679688 297.925781 318.242188 298.203125 318.820312 298.203125 C 319.164062 298.203125 319.511719 298.105469 319.820312 297.898438 L 330.15625 290.953125 C 330.546875 290.6875 330.820312 290.277344 330.914062 289.808594 C 331.003906 289.34375 330.90625 288.859375 330.640625 288.464844 L 315.726562 266.308594 L 334.5 257.996094 C 335.117188 257.722656 335.53125 257.125 335.566406 256.453125 C 335.601562 255.78125 335.253906 255.144531 334.671875 254.804688 " fill-opacity="1" fill-rule="nonzero"/></g><g clip-path="url(#ca9138fc48)"><path fill="#000000" d="M 24.535156 39.359375 L 226.527344 39.359375 C 238.949219 39.359375 249.015625 49.441406 249.015625 61.878906 L 249.015625 160.296875 C 249.015625 172.738281 238.949219 182.820312 226.527344 182.820312 L 24.535156 182.820312 C 12.113281 182.820312 2.046875 172.738281 2.046875 160.296875 L 2.046875 61.878906 C 2.046875 49.441406 12.113281 39.359375 24.535156 39.359375 " fill-opacity="1" fill-rule="nonzero"/></g><g clip-path="url(#20e4f5fcf6)"><path fill="#d9d9d9" d="M 28.636719 95.515625 L 50.480469 95.515625 C 56.722656 95.515625 61.78125 100.546875 61.78125 106.75 L 61.78125 115.21875 C 61.78125 121.425781 56.722656 126.453125 50.480469 126.453125 L 28.636719 126.453125 C 22.394531 126.453125 17.335938 121.425781 17.335938 115.21875 L 17.335938 106.75 C 17.335938 100.546875 22.394531 95.515625 28.636719 95.515625 " fill-opacity="1" fill-rule="nonzero"/></g><g clip-path="url(#0952cbccbb)"><path fill="#6a6fe7" d="M 46.289062 149.464844 L 86.632812 149.464844 C 90.402344 149.464844 93.460938 152.488281 93.460938 156.214844 C 93.460938 159.945312 90.402344 162.96875 86.632812 162.96875 L 46.289062 162.96875 C 42.519531 162.96875 39.464844 159.945312 39.464844 156.214844 C 39.464844 152.488281 42.519531 149.464844 46.289062 149.464844 " fill-opacity="1" fill-rule="nonzero"/></g><g clip-path="url(#7f2fc3c3c5)"><path fill="#6a6fe7" d="M 106.9375 149.464844 L 170.347656 149.464844 C 174.113281 149.464844 177.167969 152.488281 177.167969 156.214844 C 177.167969 159.945312 174.113281 162.96875 170.347656 162.96875 L 106.9375 162.96875 C 103.171875 162.96875 100.117188 159.945312 100.117188 156.214844 C 100.117188 152.488281 103.171875 149.464844 106.9375 149.464844 " fill-opacity="1" fill-rule="nonzero"/></g><g clip-path="url(#42f14e0d37)"><path fill="#ffffff" d="M 228.082031 114.976562 C 225.160156 114.976562 223.652344 113.34375 222.4375 112.03125 C 221.351562 110.855469 220.566406 110.003906 218.890625 110.003906 C 217.214844 110.003906 216.429688 110.855469 215.34375 112.03125 C 214.132812 113.34375 212.621094 114.976562 209.703125 114.976562 C 206.78125 114.976562 205.273438 113.34375 204.058594 112.03125 C 202.972656 110.855469 202.1875 110.003906 200.515625 110.003906 C 198.839844 110.003906 198.054688 110.855469 196.96875 112.03125 C 195.753906 113.34375 194.246094 114.976562 191.324219 114.976562 C 188.40625 114.976562 186.894531 113.34375 185.683594 112.03125 C 184.597656 110.855469 183.8125 110.003906 182.136719 110.003906 C 180.460938 110.003906 179.675781 110.855469 178.589844 112.03125 C 177.378906 113.34375 175.871094 114.976562 172.949219 114.976562 C 170.03125 114.976562 168.519531 113.34375 167.308594 112.03125 C 166.222656 110.855469 165.4375 110.003906 163.761719 110.003906 C 162.085938 110.003906 161.300781 110.855469 160.214844 112.03125 C 159.003906 113.34375 157.492188 114.976562 154.574219 114.976562 C 151.652344 114.976562 150.144531 113.34375 148.933594 112.03125 C 147.84375 110.855469 147.058594 110.003906 145.386719 110.003906 C 143.710938 110.003906 142.925781 110.855469 141.839844 112.03125 C 140.625 113.34375 139.117188 114.976562 136.195312 114.976562 C 133.277344 114.976562 131.769531 113.34375 130.554688 112.03125 C 129.46875 110.855469 128.683594 110.003906 127.007812 110.003906 C 125.335938 110.003906 124.550781 110.855469 123.464844 112.03125 C 122.25 113.34375 120.742188 114.976562 117.820312 114.976562 C 114.902344 114.976562 113.394531 113.34375 112.179688 112.03125 C 111.09375 110.855469 110.308594 110.003906 108.636719 110.003906 C 106.960938 110.003906 106.175781 110.855469 105.089844 112.03125 C 103.875 113.34375 102.367188 114.976562 99.449219 114.976562 C 96.527344 114.976562 95.019531 113.34375 93.804688 112.03125 C 92.71875 110.855469 91.933594 110.003906 90.261719 110.003906 C 88.585938 110.003906 87.800781 110.855469 86.714844 112.03125 C 85.5 113.34375 83.992188 114.976562 81.074219 114.976562 C 78.152344 114.976562 76.644531 113.34375 75.429688 112.03125 C 74.34375 110.855469 73.558594 110.003906 71.886719 110.003906 L 71.886719 107.105469 C 74.804688 107.105469 76.3125 108.738281 77.527344 110.050781 C 78.613281 111.226562 79.398438 112.078125 81.074219 112.078125 C 82.746094 112.078125 83.53125 111.226562 84.617188 110.050781 C 85.832031 108.738281 87.339844 107.105469 90.261719 107.105469 C 93.179688 107.105469 94.6875 108.738281 95.902344 110.050781 C 96.988281 111.226562 97.773438 112.078125 99.449219 112.078125 C 101.121094 112.078125 101.90625 111.226562 102.992188 110.050781 C 104.207031 108.738281 105.714844 107.105469 108.636719 107.105469 C 111.554688 107.105469 113.0625 108.738281 114.277344 110.050781 C 115.363281 111.226562 116.148438 112.078125 117.820312 112.078125 C 119.496094 112.078125 120.28125 111.226562 121.367188 110.050781 C 122.582031 108.738281 124.089844 107.105469 127.007812 107.105469 C 129.929688 107.105469 131.4375 108.738281 132.652344 110.050781 C 133.738281 111.226562 134.523438 112.078125 136.195312 112.078125 C 137.871094 112.078125 138.65625 111.226562 139.742188 110.050781 C 140.957031 108.738281 142.464844 107.105469 145.386719 107.105469 C 148.304688 107.105469 149.8125 108.738281 151.027344 110.050781 C 152.113281 111.226562 152.898438 112.078125 154.574219 112.078125 C 156.246094 112.078125 157.03125 111.226562 158.121094 110.050781 C 159.332031 108.738281 160.84375 107.105469 163.761719 107.105469 C 166.679688 107.105469 168.191406 108.738281 169.402344 110.050781 C 170.488281 111.226562 171.273438 112.078125 172.949219 112.078125 C 174.625 112.078125 175.410156 111.226562 176.496094 110.050781 C 177.707031 108.738281 179.21875 107.105469 182.136719 107.105469 C 185.058594 107.105469 186.566406 108.738281 187.777344 110.050781 C 188.867188 111.226562 189.652344 112.078125 191.324219 112.078125 C 193 112.078125 193.785156 111.226562 194.871094 110.050781 C 196.085938 108.738281 197.59375 107.105469 200.515625 107.105469 C 203.433594 107.105469 204.941406 108.738281 206.15625 110.050781 C 207.242188 111.226562 208.027344 112.078125 209.703125 112.078125 C 211.375 112.078125 212.160156 111.226562 213.25 110.050781 C 214.460938 108.738281 215.972656 107.105469 218.890625 107.105469 C 221.8125 107.105469 223.320312 108.738281 224.535156 110.050781 C 225.621094 111.226562 226.40625 112.078125 228.082031 112.078125 L 228.082031 114.976562 " fill-opacity="1" fill-rule="nonzero"/></g><g clip-path="url(#10601fef1f)"><path fill="#ffffff" d="M 229.472656 75.550781 C 229.792969 75.871094 229.792969 76.386719 229.472656 76.703125 C 228.535156 77.632812 227.378906 78.308594 226.109375 78.679688 L 226.109375 81.042969 C 226.109375 81.492188 225.742188 81.855469 225.289062 81.855469 C 224.835938 81.855469 224.46875 81.492188 224.46875 81.042969 L 224.46875 79.003906 C 224.222656 79.027344 223.980469 79.039062 223.734375 79.039062 C 223.40625 79.035156 223.078125 79.015625 222.75 78.976562 L 222.75 81.042969 C 222.75 81.492188 222.382812 81.855469 221.929688 81.855469 C 221.476562 81.855469 221.109375 81.492188 221.109375 81.042969 L 221.109375 78.589844 C 219.53125 78.039062 218.167969 77.019531 217.199219 75.667969 C 216.234375 74.316406 215.710938 72.703125 215.707031 71.046875 C 215.710938 69.386719 216.234375 67.769531 217.203125 66.417969 C 218.167969 65.066406 219.535156 64.042969 221.117188 63.496094 L 221.117188 61.046875 C 221.117188 60.597656 221.484375 60.234375 221.9375 60.234375 C 222.386719 60.234375 222.757812 60.597656 222.757812 61.046875 L 222.757812 63.113281 C 223.324219 63.042969 223.898438 63.03125 224.46875 63.089844 L 224.46875 61.046875 C 224.46875 60.597656 224.835938 60.234375 225.289062 60.234375 C 225.742188 60.234375 226.109375 60.597656 226.109375 61.046875 L 226.109375 63.40625 C 227.382812 63.777344 228.539062 64.460938 229.472656 65.390625 C 229.785156 65.710938 229.78125 66.21875 229.464844 66.535156 C 229.144531 66.847656 228.636719 66.851562 228.3125 66.542969 C 227.4375 65.679688 226.328125 65.085938 225.121094 64.835938 C 224.140625 64.613281 223.121094 64.628906 222.148438 64.886719 C 221.046875 65.175781 220.042969 65.746094 219.242188 66.542969 C 218.171875 67.601562 217.515625 69.003906 217.386719 70.5 C 217.257812 71.992188 217.664062 73.484375 218.535156 74.710938 C 219.40625 75.933594 220.683594 76.816406 222.144531 77.199219 C 223.109375 77.460938 224.125 77.476562 225.097656 77.253906 C 226.316406 77.011719 227.433594 76.421875 228.3125 75.550781 C 228.464844 75.398438 228.675781 75.3125 228.894531 75.3125 C 229.113281 75.3125 229.320312 75.398438 229.472656 75.550781 " fill-opacity="1" fill-rule="nonzero"/></g></svg>