<svg width="21" height="14" viewBox="0 0 21 14" fill="currentColor" xmlns="http://www.w3.org/2000/svg">
<path d="M4.50825 9.97181H0.8428C0.224408 9.97181 -0.183248 9.3275 0.0827646 8.76957L4.06777 0.386719H7.73494C8.35334 0.386719 8.76099 1.03102 8.49498 1.58896L4.50825 9.97181Z" fill="white"/>
<path d="M16.9296 9.97181H13.2642C12.6458 9.97181 12.2381 9.3275 12.5042 8.76957L16.4892 0.386719H20.1563C20.7747 0.386719 21.1824 1.03102 20.9164 1.58896L16.9296 9.97181Z" fill="white"/>
<path d="M8.79727 14H5.13009C4.5117 14 4.10404 13.3557 4.37006 12.7978L8.35506 4.41492H12.0222C12.6406 4.41492 13.0483 5.05922 12.7823 5.61716L8.79727 14Z" fill="white"/>
</svg>
