<svg width="327" height="200" viewBox="0 0 327 200" fill="none" xmlns="http://www.w3.org/2000/svg">
<rect width="327" height="200" fill="#F5F5F5"/>
<rect width="327" height="200" rx="10" fill="url(#paint0_radial_0_1)"/>
<mask id="mask0_0_1" style="mask-type:alpha" maskUnits="userSpaceOnUse" x="0" y="0" width="327" height="200">
<rect width="327" height="200" rx="10" fill="url(#paint1_radial_0_1)"/>
</mask>
<g mask="url(#mask0_0_1)">
<path d="M363 126C180.6 107.6 91.6667 -0.666668 70 -52.5H-25V102.5C119.4 91.3 193.5 182.167 212.5 229H363V126Z" fill="url(#paint2_linear_0_1)"/>
<path d="M364.518 181.586C215.755 74.4507 192.87 -63.7777 200.022 -119.5L117.75 -167L40.25 -32.7661C170.904 29.7345 189.643 145.477 182.681 195.536L313.018 270.786L364.518 181.586Z" fill="url(#paint3_linear_0_1)"/>
</g>
<defs>
<radialGradient id="paint0_radial_0_1" cx="0" cy="0" r="1" gradientUnits="userSpaceOnUse" gradientTransform="translate(200 -70) rotate(90) scale(454 340.816)">
<stop stop-color="#CF54F8"/>
<stop offset="0.572917" stop-color="#5C44DC"/>
<stop offset="1" stop-color="#393FD4"/>
</radialGradient>
<radialGradient id="paint1_radial_0_1" cx="0" cy="0" r="1" gradientUnits="userSpaceOnUse" gradientTransform="translate(200 -70) rotate(90) scale(454 340.816)">
<stop stop-color="#FF0099"/>
<stop offset="1" stop-color="#493240"/>
</radialGradient>
<linearGradient id="paint2_linear_0_1" x1="306.5" y1="-179.5" x2="169" y2="173" gradientUnits="userSpaceOnUse">
<stop stop-color="white"/>
<stop offset="1" stop-color="white" stop-opacity="0"/>
</linearGradient>
<linearGradient id="paint3_linear_0_1" x1="468.337" y1="-111.235" x2="135" y2="125.5" gradientUnits="userSpaceOnUse">
<stop stop-color="white"/>
<stop offset="1" stop-color="white" stop-opacity="0"/>
</linearGradient>
</defs>
</svg>
