<svg xmlns="http://www.w3.org/2000/svg" xmlns:xlink="http://www.w3.org/1999/xlink" width="500" zoomAndPan="magnify" viewBox="0 0 375 374.999991" height="500" preserveAspectRatio="xMidYMid meet" version="1.0"><defs><clipPath id="4740f8d14f"><path d="M 1 1 L 374 1 L 374 374 L 1 374 Z M 1 1 " clip-rule="nonzero"/></clipPath><clipPath id="ca434c57fb"><path d="M 373.949219 187.5 C 373.949219 190.550781 373.875 193.601562 373.726562 196.648438 C 373.574219 199.695312 373.351562 202.738281 373.050781 205.773438 C 372.753906 208.8125 372.378906 211.839844 371.933594 214.859375 C 371.484375 217.875 370.960938 220.882812 370.367188 223.875 C 369.773438 226.867188 369.105469 229.84375 368.363281 232.804688 C 367.621094 235.761719 366.808594 238.703125 365.921875 241.625 C 365.035156 244.542969 364.078125 247.441406 363.050781 250.3125 C 362.023438 253.1875 360.925781 256.03125 359.757812 258.851562 C 358.589844 261.671875 357.351562 264.460938 356.046875 267.21875 C 354.746094 269.976562 353.371094 272.699219 351.933594 275.390625 C 350.496094 278.082031 348.992188 280.738281 347.421875 283.355469 C 345.855469 285.972656 344.222656 288.550781 342.527344 291.085938 C 340.832031 293.625 339.074219 296.117188 337.257812 298.566406 C 335.441406 301.019531 333.5625 303.425781 331.628906 305.78125 C 329.691406 308.140625 327.699219 310.453125 325.648438 312.710938 C 323.601562 314.972656 321.496094 317.183594 319.339844 319.339844 C 317.183594 321.496094 314.972656 323.601562 312.710938 325.648438 C 310.453125 327.699219 308.140625 329.691406 305.78125 331.628906 C 303.425781 333.5625 301.019531 335.441406 298.566406 337.257812 C 296.117188 339.074219 293.625 340.832031 291.085938 342.527344 C 288.550781 344.222656 285.972656 345.855469 283.355469 347.421875 C 280.738281 348.992188 278.082031 350.496094 275.390625 351.933594 C 272.699219 353.371094 269.976562 354.742188 267.21875 356.046875 C 264.460938 357.351562 261.671875 358.589844 258.851562 359.757812 C 256.03125 360.925781 253.1875 362.023438 250.3125 363.050781 C 247.441406 364.078125 244.542969 365.035156 241.625 365.921875 C 238.703125 366.808594 235.761719 367.621094 232.804688 368.363281 C 229.84375 369.105469 226.867188 369.773438 223.875 370.367188 C 220.882812 370.960938 217.875 371.484375 214.859375 371.933594 C 211.839844 372.378906 208.8125 372.753906 205.773438 373.050781 C 202.738281 373.351562 199.695312 373.574219 196.648438 373.726562 C 193.601562 373.875 190.550781 373.949219 187.5 373.949219 C 184.449219 373.949219 181.398438 373.875 178.351562 373.726562 C 175.304688 373.574219 172.261719 373.351562 169.226562 373.050781 C 166.1875 372.753906 163.160156 372.378906 160.140625 371.933594 C 157.125 371.484375 154.117188 370.960938 151.125 370.367188 C 148.132812 369.773438 145.15625 369.105469 142.195312 368.363281 C 139.238281 367.621094 136.296875 366.808594 133.375 365.921875 C 130.457031 365.035156 127.558594 364.078125 124.6875 363.050781 C 121.8125 362.023438 118.96875 360.925781 116.148438 359.757812 C 113.328125 358.589844 110.539062 357.351562 107.78125 356.046875 C 105.023438 354.746094 102.300781 353.371094 99.609375 351.933594 C 96.917969 350.496094 94.261719 348.992188 91.644531 347.421875 C 89.027344 345.855469 86.449219 344.222656 83.914062 342.527344 C 81.375 340.832031 78.882812 339.074219 76.433594 337.257812 C 73.980469 335.441406 71.574219 333.5625 69.21875 331.628906 C 66.859375 329.691406 64.546875 327.699219 62.289062 325.648438 C 60.027344 323.601562 57.816406 321.496094 55.660156 319.339844 C 53.503906 317.183594 51.398438 314.972656 49.351562 312.710938 C 47.300781 310.453125 45.308594 308.140625 43.371094 305.78125 C 41.4375 303.425781 39.558594 301.019531 37.742188 298.566406 C 35.925781 296.117188 34.167969 293.625 32.472656 291.085938 C 30.777344 288.550781 29.144531 285.972656 27.578125 283.355469 C 26.007812 280.738281 24.503906 278.082031 23.066406 275.390625 C 21.628906 272.699219 20.253906 269.976562 18.953125 267.21875 C 17.648438 264.460938 16.410156 261.671875 15.242188 258.851562 C 14.074219 256.03125 12.976562 253.1875 11.949219 250.3125 C 10.921875 247.441406 9.964844 244.542969 9.078125 241.625 C 8.191406 238.703125 7.378906 235.761719 6.636719 232.804688 C 5.894531 229.84375 5.226562 226.867188 4.632812 223.875 C 4.039062 220.882812 3.515625 217.875 3.066406 214.859375 C 2.621094 211.839844 2.246094 208.8125 1.949219 205.773438 C 1.648438 202.738281 1.425781 199.695312 1.273438 196.648438 C 1.125 193.601562 1.050781 190.550781 1.050781 187.5 C 1.050781 184.449219 1.125 181.398438 1.273438 178.351562 C 1.425781 175.304688 1.648438 172.261719 1.949219 169.226562 C 2.246094 166.1875 2.621094 163.160156 3.066406 160.140625 C 3.515625 157.125 4.039062 154.117188 4.632812 151.125 C 5.226562 148.132812 5.894531 145.15625 6.636719 142.195312 C 7.378906 139.238281 8.191406 136.296875 9.078125 133.375 C 9.964844 130.457031 10.921875 127.558594 11.949219 124.6875 C 12.976562 121.8125 14.074219 118.96875 15.242188 116.148438 C 16.410156 113.328125 17.648438 110.539062 18.953125 107.78125 C 20.253906 105.023438 21.628906 102.300781 23.066406 99.609375 C 24.503906 96.917969 26.007812 94.261719 27.578125 91.644531 C 29.144531 89.027344 30.777344 86.449219 32.472656 83.914062 C 34.167969 81.375 35.925781 78.882812 37.742188 76.433594 C 39.558594 73.980469 41.4375 71.574219 43.371094 69.21875 C 45.308594 66.859375 47.300781 64.546875 49.351562 62.289062 C 51.398438 60.027344 53.503906 57.816406 55.660156 55.660156 C 57.816406 53.503906 60.027344 51.398438 62.289062 49.351562 C 64.546875 47.300781 66.859375 45.308594 69.21875 43.371094 C 71.574219 41.4375 73.980469 39.558594 76.433594 37.742188 C 78.882812 35.925781 81.375 34.167969 83.914062 32.472656 C 86.449219 30.777344 89.027344 29.144531 91.644531 27.578125 C 94.261719 26.007812 96.917969 24.503906 99.609375 23.066406 C 102.300781 21.628906 105.023438 20.253906 107.78125 18.953125 C 110.539062 17.648438 113.328125 16.410156 116.148438 15.242188 C 118.96875 14.074219 121.8125 12.976562 124.6875 11.949219 C 127.558594 10.921875 130.457031 9.964844 133.375 9.078125 C 136.296875 8.191406 139.238281 7.378906 142.195312 6.636719 C 145.15625 5.894531 148.132812 5.226562 151.125 4.632812 C 154.117188 4.039062 157.125 3.515625 160.140625 3.066406 C 163.160156 2.621094 166.1875 2.246094 169.226562 1.949219 C 172.261719 1.648438 175.304688 1.425781 178.351562 1.273438 C 181.398438 1.125 184.449219 1.050781 187.5 1.050781 C 190.550781 1.050781 193.601562 1.125 196.648438 1.273438 C 199.695312 1.425781 202.738281 1.648438 205.773438 1.949219 C 208.8125 2.246094 211.839844 2.621094 214.859375 3.066406 C 217.875 3.515625 220.882812 4.039062 223.875 4.632812 C 226.867188 5.226562 229.84375 5.894531 232.804688 6.636719 C 235.761719 7.378906 238.703125 8.191406 241.625 9.078125 C 244.542969 9.964844 247.441406 10.921875 250.3125 11.949219 C 253.1875 12.976562 256.03125 14.074219 258.851562 15.242188 C 261.671875 16.410156 264.460938 17.648438 267.21875 18.953125 C 269.976562 20.253906 272.699219 21.628906 275.390625 23.066406 C 278.082031 24.503906 280.738281 26.007812 283.355469 27.578125 C 285.972656 29.144531 288.550781 30.777344 291.085938 32.472656 C 293.625 34.167969 296.117188 35.925781 298.566406 37.742188 C 301.019531 39.558594 303.425781 41.4375 305.78125 43.371094 C 308.140625 45.308594 310.453125 47.300781 312.710938 49.351562 C 314.972656 51.398438 317.183594 53.503906 319.339844 55.660156 C 321.496094 57.816406 323.601562 60.027344 325.648438 62.289062 C 327.699219 64.546875 329.691406 66.859375 331.628906 69.21875 C 333.5625 71.574219 335.441406 73.980469 337.257812 76.433594 C 339.074219 78.882812 340.832031 81.375 342.527344 83.914062 C 344.222656 86.449219 345.855469 89.027344 347.421875 91.644531 C 348.992188 94.261719 350.496094 96.917969 351.933594 99.609375 C 353.371094 102.300781 354.742188 105.023438 356.046875 107.78125 C 357.351562 110.539062 358.589844 113.328125 359.757812 116.148438 C 360.925781 118.96875 362.023438 121.8125 363.050781 124.6875 C 364.078125 127.558594 365.035156 130.457031 365.921875 133.375 C 366.808594 136.296875 367.621094 139.238281 368.363281 142.195312 C 369.105469 145.15625 369.773438 148.132812 370.367188 151.125 C 370.960938 154.117188 371.484375 157.125 371.933594 160.140625 C 372.378906 163.160156 372.753906 166.1875 373.050781 169.226562 C 373.351562 172.261719 373.574219 175.304688 373.726562 178.351562 C 373.875 181.398438 373.949219 184.449219 373.949219 187.5 Z M 373.949219 187.5 " clip-rule="nonzero"/></clipPath><linearGradient x1="48.842112" gradientTransform="matrix(0.75, 0, 0, 0.75, 0.0000045, 0)" y1="-32.394399" x2="451.157618" gradientUnits="userSpaceOnUse" y2="532.394562" id="90414f052d"><stop stop-opacity="1" stop-color="rgb(27.099609%, 29.798889%, 88.198853%)" offset="0"/><stop stop-opacity="1" stop-color="rgb(27.206421%, 29.905701%, 88.259888%)" offset="0.0625"/><stop stop-opacity="1" stop-color="rgb(27.484131%, 30.183411%, 88.418579%)" offset="0.078125"/><stop stop-opacity="1" stop-color="rgb(27.822876%, 30.522156%, 88.613892%)" offset="0.09375"/><stop stop-opacity="1" stop-color="rgb(28.161621%, 30.860901%, 88.807678%)" offset="0.109375"/><stop stop-opacity="1" stop-color="rgb(28.500366%, 31.199646%, 89.001465%)" offset="0.125"/><stop stop-opacity="1" stop-color="rgb(28.839111%, 31.539917%, 89.195251%)" offset="0.140625"/><stop stop-opacity="1" stop-color="rgb(29.177856%, 31.878662%, 89.389038%)" offset="0.15625"/><stop stop-opacity="1" stop-color="rgb(29.516602%, 32.217407%, 89.584351%)" offset="0.171875"/><stop stop-opacity="1" stop-color="rgb(29.855347%, 32.556152%, 89.778137%)" offset="0.1875"/><stop stop-opacity="1" stop-color="rgb(30.194092%, 32.894897%, 89.971924%)" offset="0.203125"/><stop stop-opacity="1" stop-color="rgb(30.532837%, 33.233643%, 90.16571%)" offset="0.21875"/><stop stop-opacity="1" stop-color="rgb(30.873108%, 33.572388%, 90.361023%)" offset="0.234375"/><stop stop-opacity="1" stop-color="rgb(31.211853%, 33.911133%, 90.55481%)" offset="0.25"/><stop stop-opacity="1" stop-color="rgb(31.550598%, 34.249878%, 90.748596%)" offset="0.265625"/><stop stop-opacity="1" stop-color="rgb(31.889343%, 34.588623%, 90.942383%)" offset="0.28125"/><stop stop-opacity="1" stop-color="rgb(32.228088%, 34.927368%, 91.137695%)" offset="0.296875"/><stop stop-opacity="1" stop-color="rgb(32.566833%, 35.266113%, 91.331482%)" offset="0.3125"/><stop stop-opacity="1" stop-color="rgb(32.905579%, 35.604858%, 91.525269%)" offset="0.328125"/><stop stop-opacity="1" stop-color="rgb(33.244324%, 35.945129%, 91.719055%)" offset="0.34375"/><stop stop-opacity="1" stop-color="rgb(33.583069%, 36.283875%, 91.912842%)" offset="0.359375"/><stop stop-opacity="1" stop-color="rgb(33.921814%, 36.62262%, 92.108154%)" offset="0.375"/><stop stop-opacity="1" stop-color="rgb(34.260559%, 36.961365%, 92.301941%)" offset="0.390625"/><stop stop-opacity="1" stop-color="rgb(34.599304%, 37.30011%, 92.495728%)" offset="0.40625"/><stop stop-opacity="1" stop-color="rgb(34.938049%, 37.638855%, 92.689514%)" offset="0.416"/><stop stop-opacity="1" stop-color="rgb(35.108948%, 37.808228%, 92.78717%)" offset="0.421875"/><stop stop-opacity="1" stop-color="rgb(35.27832%, 37.9776%, 92.884827%)" offset="0.4375"/><stop stop-opacity="1" stop-color="rgb(35.617065%, 38.316345%, 93.078613%)" offset="0.453125"/><stop stop-opacity="1" stop-color="rgb(35.955811%, 38.65509%, 93.2724%)" offset="0.46875"/><stop stop-opacity="1" stop-color="rgb(36.294556%, 38.993835%, 93.466187%)" offset="0.484375"/><stop stop-opacity="1" stop-color="rgb(36.633301%, 39.332581%, 93.661499%)" offset="0.5"/><stop stop-opacity="1" stop-color="rgb(36.972046%, 39.671326%, 93.855286%)" offset="0.515625"/><stop stop-opacity="1" stop-color="rgb(37.310791%, 40.010071%, 94.049072%)" offset="0.53125"/><stop stop-opacity="1" stop-color="rgb(37.649536%, 40.350342%, 94.242859%)" offset="0.546875"/><stop stop-opacity="1" stop-color="rgb(37.988281%, 40.689087%, 94.436646%)" offset="0.5625"/><stop stop-opacity="1" stop-color="rgb(38.327026%, 41.027832%, 94.631958%)" offset="0.578125"/><stop stop-opacity="1" stop-color="rgb(38.665771%, 41.366577%, 94.825745%)" offset="0.584"/><stop stop-opacity="1" stop-color="rgb(38.835144%, 41.53595%, 94.923401%)" offset="0.59375"/><stop stop-opacity="1" stop-color="rgb(39.004517%, 41.705322%, 95.019531%)" offset="0.609375"/><stop stop-opacity="1" stop-color="rgb(39.343262%, 42.044067%, 95.213318%)" offset="0.625"/><stop stop-opacity="1" stop-color="rgb(39.682007%, 42.382812%, 95.40863%)" offset="0.640625"/><stop stop-opacity="1" stop-color="rgb(40.022278%, 42.721558%, 95.602417%)" offset="0.65625"/><stop stop-opacity="1" stop-color="rgb(40.361023%, 43.060303%, 95.796204%)" offset="0.671875"/><stop stop-opacity="1" stop-color="rgb(40.699768%, 43.399048%, 95.98999%)" offset="0.6875"/><stop stop-opacity="1" stop-color="rgb(41.038513%, 43.737793%, 96.185303%)" offset="0.703125"/><stop stop-opacity="1" stop-color="rgb(41.377258%, 44.076538%, 96.379089%)" offset="0.71875"/><stop stop-opacity="1" stop-color="rgb(41.716003%, 44.415283%, 96.572876%)" offset="0.734375"/><stop stop-opacity="1" stop-color="rgb(42.054749%, 44.755554%, 96.766663%)" offset="0.75"/><stop stop-opacity="1" stop-color="rgb(42.393494%, 45.094299%, 96.960449%)" offset="0.765625"/><stop stop-opacity="1" stop-color="rgb(42.732239%, 45.433044%, 97.155762%)" offset="0.78125"/><stop stop-opacity="1" stop-color="rgb(43.070984%, 45.77179%, 97.349548%)" offset="0.796875"/><stop stop-opacity="1" stop-color="rgb(43.409729%, 46.110535%, 97.543335%)" offset="0.8125"/><stop stop-opacity="1" stop-color="rgb(43.748474%, 46.44928%, 97.737122%)" offset="0.828125"/><stop stop-opacity="1" stop-color="rgb(44.087219%, 46.788025%, 97.932434%)" offset="0.84375"/><stop stop-opacity="1" stop-color="rgb(44.42749%, 47.12677%, 98.126221%)" offset="0.859375"/><stop stop-opacity="1" stop-color="rgb(44.766235%, 47.465515%, 98.320007%)" offset="0.875"/><stop stop-opacity="1" stop-color="rgb(45.10498%, 47.80426%, 98.513794%)" offset="0.890625"/><stop stop-opacity="1" stop-color="rgb(45.443726%, 48.143005%, 98.709106%)" offset="0.90625"/><stop stop-opacity="1" stop-color="rgb(45.782471%, 48.48175%, 98.902893%)" offset="0.921875"/><stop stop-opacity="1" stop-color="rgb(46.121216%, 48.820496%, 99.09668%)" offset="0.9375"/><stop stop-opacity="1" stop-color="rgb(46.295166%, 48.994446%, 99.195862%)" offset="1"/></linearGradient><clipPath id="4550991949"><path d="M 66.148438 56.34375 L 309.148438 56.34375 L 309.148438 318.84375 L 66.148438 318.84375 Z M 66.148438 56.34375 " clip-rule="nonzero"/></clipPath></defs><g clip-path="url(#4740f8d14f)"><g clip-path="url(#ca434c57fb)"><path fill="url(#90414f052d)" d="M 1.050781 1.050781 L 1.050781 373.949219 L 373.949219 373.949219 L 373.949219 1.050781 Z M 1.050781 1.050781 " fill-rule="nonzero"/></g></g><path fill="#ffffff" d="M 187.5 375 C 84.074219 375 0 290.925781 0 187.5 C 0 84.074219 84.074219 0 187.5 0 C 290.851562 0 375 84.074219 375 187.5 C 375 290.925781 290.851562 375 187.5 375 Z M 187.5 2.101562 C 85.273438 2.101562 2.101562 85.273438 2.101562 187.5 C 2.101562 289.726562 85.273438 372.898438 187.5 372.898438 C 289.726562 372.898438 372.898438 289.726562 372.898438 187.5 C 372.898438 85.273438 289.726562 2.101562 187.5 2.101562 Z M 187.5 2.101562 " fill-opacity="1" fill-rule="nonzero"/><g clip-path="url(#4550991949)"><path fill="#ffffff" d="M 308.191406 228.261719 C 307.753906 227.199219 307.171875 226.226562 306.445312 225.335938 C 305.71875 224.449219 304.878906 223.6875 303.925781 223.046875 C 302.972656 222.410156 301.945312 221.925781 300.847656 221.59375 C 299.75 221.261719 298.625 221.097656 297.480469 221.097656 L 226.699219 221.050781 C 225.164062 221.054688 223.683594 221.347656 222.261719 221.9375 C 220.84375 222.523438 219.585938 223.359375 218.496094 224.441406 L 204.648438 238.28125 L 204.222656 238.746094 C 196.113281 247.96875 178.1875 254.398438 159.605469 254.738281 C 149.074219 254.929688 129.8125 253.261719 116.066406 240.324219 L 101.164062 225.417969 C 99.925781 224.179688 98.753906 222.882812 97.644531 221.527344 C 96.535156 220.171875 95.492188 218.769531 94.519531 217.3125 C 93.550781 215.855469 92.652344 214.355469 91.828125 212.8125 C 91.003906 211.269531 90.253906 209.6875 89.585938 208.070312 C 88.917969 206.453125 88.328125 204.808594 87.820312 203.132812 C 87.3125 201.457031 86.890625 199.761719 86.546875 198.042969 C 86.207031 196.328125 85.949219 194.597656 85.777344 192.855469 C 85.609375 191.113281 85.523438 189.367188 85.523438 187.617188 C 85.523438 185.867188 85.609375 184.121094 85.777344 182.378906 C 85.949219 180.636719 86.207031 178.910156 86.546875 177.191406 C 86.890625 175.476562 87.3125 173.78125 87.820312 172.105469 C 88.328125 170.429688 88.917969 168.785156 89.585938 167.167969 C 90.253906 165.550781 91.003906 163.96875 91.828125 162.425781 C 92.652344 160.878906 93.550781 159.378906 94.519531 157.925781 C 95.492188 156.46875 96.535156 155.0625 97.644531 153.710938 C 98.753906 152.355469 99.925781 151.058594 101.164062 149.820312 L 114.089844 136.890625 C 141.183594 109.859375 182.789062 115.089844 204.660156 136.941406 L 218.40625 150.695312 C 219.492188 151.78125 220.742188 152.617188 222.164062 153.207031 C 223.582031 153.792969 225.058594 154.085938 226.597656 154.082031 L 297.480469 154.125 C 298.628906 154.128906 299.75 153.960938 300.851562 153.628906 C 301.949219 153.296875 302.976562 152.8125 303.933594 152.175781 C 304.886719 151.539062 305.730469 150.777344 306.460938 149.890625 C 307.1875 149.003906 307.773438 148.03125 308.210938 146.96875 C 308.652344 145.910156 308.925781 144.808594 309.039062 143.664062 C 309.152344 142.523438 309.097656 141.386719 308.871094 140.261719 C 308.644531 139.136719 308.261719 138.066406 307.71875 137.054688 C 307.179688 136.042969 306.5 135.132812 305.6875 134.324219 L 248.992188 77.664062 C 248.148438 76.824219 247.285156 76 246.402344 75.203125 C 245.519531 74.402344 244.617188 73.625 243.699219 72.867188 C 242.777344 72.113281 241.835938 71.378906 240.878906 70.667969 C 239.921875 69.960938 238.949219 69.273438 237.957031 68.613281 C 236.96875 67.949219 235.960938 67.3125 234.9375 66.703125 C 233.917969 66.089844 232.878906 65.5 231.828125 64.941406 C 230.777344 64.378906 229.714844 63.84375 228.636719 63.332031 C 227.558594 62.824219 226.46875 62.339844 225.367188 61.886719 C 224.269531 61.429688 223.15625 61 222.035156 60.601562 C 220.910156 60.199219 219.78125 59.824219 218.640625 59.480469 C 217.5 59.132812 216.351562 58.816406 215.195312 58.527344 C 214.039062 58.238281 212.878906 57.976562 211.707031 57.742188 C 210.539062 57.511719 209.367188 57.308594 208.1875 57.132812 C 207.007812 56.957031 205.824219 56.8125 204.640625 56.695312 C 203.453125 56.578125 202.265625 56.492188 201.074219 56.433594 C 199.882812 56.375 198.691406 56.34375 197.5 56.34375 C 196.308594 56.34375 195.117188 56.375 193.929688 56.433594 C 192.738281 56.492188 191.550781 56.578125 190.363281 56.695312 C 189.179688 56.8125 187.996094 56.957031 186.816406 57.132812 C 185.636719 57.308594 184.464844 57.511719 183.296875 57.742188 C 182.125 57.976562 180.964844 58.238281 179.808594 58.527344 C 178.652344 58.816406 177.503906 59.132812 176.363281 59.480469 C 175.222656 59.824219 174.089844 60.199219 172.96875 60.601562 C 171.847656 61 170.734375 61.429688 169.632812 61.886719 C 168.535156 62.339844 167.445312 62.824219 166.367188 63.332031 C 165.289062 63.84375 164.226562 64.378906 163.175781 64.941406 C 162.125 65.5 161.085938 66.089844 160.066406 66.703125 C 159.042969 67.3125 158.035156 67.949219 157.046875 68.613281 C 156.054688 69.273438 155.082031 69.960938 154.121094 70.671875 C 153.164062 71.378906 152.226562 72.113281 151.304688 72.867188 C 150.382812 73.625 149.480469 74.402344 148.597656 75.203125 C 147.714844 76 146.851562 76.824219 146.011719 77.664062 L 100.40625 123.242188 L 100.367188 123.285156 L 87.492188 136.152344 C 59.105469 164.527344 59.105469 210.703125 87.492188 239.078125 L 100.304688 251.859375 C 101.042969 252.636719 101.800781 253.394531 102.578125 254.132812 L 146.023438 297.558594 C 146.867188 298.398438 147.730469 299.21875 148.617188 300.015625 C 149.5 300.816406 150.402344 301.589844 151.324219 302.347656 C 152.246094 303.101562 153.183594 303.832031 154.144531 304.539062 C 155.101562 305.25 156.074219 305.933594 157.066406 306.59375 C 158.058594 307.253906 159.0625 307.890625 160.085938 308.5 C 161.109375 309.113281 162.144531 309.699219 163.195312 310.257812 C 164.246094 310.820312 165.3125 311.351562 166.390625 311.863281 C 167.464844 312.371094 168.554688 312.851562 169.65625 313.304688 C 170.757812 313.761719 171.867188 314.1875 172.992188 314.589844 C 174.113281 314.988281 175.242188 315.363281 176.382812 315.707031 C 177.523438 316.054688 178.671875 316.371094 179.828125 316.660156 C 180.984375 316.949219 182.144531 317.207031 183.3125 317.441406 C 184.484375 317.671875 185.65625 317.875 186.835938 318.050781 C 188.011719 318.222656 189.195312 318.371094 190.378906 318.484375 C 191.566406 318.601562 192.753906 318.691406 193.945312 318.75 C 195.132812 318.804688 196.324219 318.835938 197.515625 318.835938 C 198.707031 318.835938 199.898438 318.804688 201.085938 318.75 C 202.277344 318.691406 203.464844 318.601562 204.652344 318.484375 C 205.835938 318.371094 207.019531 318.222656 208.195312 318.050781 C 209.375 317.875 210.546875 317.671875 211.71875 317.441406 C 212.886719 317.207031 214.046875 316.949219 215.203125 316.660156 C 216.359375 316.371094 217.507812 316.054688 218.648438 315.707031 C 219.789062 315.363281 220.917969 314.988281 222.039062 314.589844 C 223.164062 314.1875 224.273438 313.761719 225.375 313.304688 C 226.476562 312.851562 227.566406 312.371094 228.640625 311.863281 C 229.71875 311.351562 230.785156 310.820312 231.835938 310.257812 C 232.886719 309.699219 233.921875 309.113281 234.945312 308.5 C 235.96875 307.890625 236.972656 307.253906 237.964844 306.59375 C 238.957031 305.933594 239.929688 305.25 240.886719 304.539062 C 241.847656 303.832031 242.785156 303.101562 243.707031 302.347656 C 244.628906 301.589844 245.53125 300.816406 246.414062 300.015625 C 247.300781 299.21875 248.164062 298.398438 249.007812 297.558594 L 305.6875 240.890625 C 306.5 240.082031 307.175781 239.171875 307.71875 238.160156 C 308.257812 237.148438 308.640625 236.082031 308.863281 234.957031 C 309.085938 233.832031 309.140625 232.699219 309.027344 231.558594 C 308.910156 230.417969 308.632812 229.316406 308.191406 228.261719 Z M 159.679688 91.324219 C 160.917969 90.085938 162.214844 88.910156 163.570312 87.800781 C 164.921875 86.6875 166.328125 85.648438 167.785156 84.675781 C 169.242188 83.703125 170.742188 82.804688 172.285156 81.976562 C 173.832031 81.152344 175.414062 80.40625 177.03125 79.734375 C 178.648438 79.066406 180.296875 78.476562 181.972656 77.96875 C 183.648438 77.460938 185.347656 77.035156 187.066406 76.691406 C 188.78125 76.351562 190.511719 76.09375 192.257812 75.921875 C 194 75.75 195.746094 75.667969 197.5 75.667969 C 199.25 75.667969 201 75.75 202.742188 75.921875 C 204.484375 76.09375 206.214844 76.351562 207.933594 76.691406 C 209.652344 77.035156 211.347656 77.460938 213.023438 77.96875 C 214.699219 78.476562 216.347656 79.066406 217.964844 79.734375 C 219.585938 80.40625 221.167969 81.152344 222.710938 81.976562 C 224.257812 82.804688 225.757812 83.703125 227.214844 84.675781 C 228.671875 85.648438 230.074219 86.6875 231.429688 87.800781 C 232.785156 88.910156 234.078125 90.085938 235.320312 91.324219 L 278.808594 134.789062 L 229.816406 134.757812 L 218.332031 123.28125 C 201.78125 106.738281 176.550781 97.515625 151.390625 99.601562 Z M 235.3125 283.90625 C 234.074219 285.140625 232.777344 286.3125 231.421875 287.421875 C 230.066406 288.53125 228.660156 289.570312 227.203125 290.542969 C 225.746094 291.515625 224.246094 292.410156 222.703125 293.234375 C 221.15625 294.058594 219.574219 294.804688 217.957031 295.472656 C 216.339844 296.144531 214.691406 296.730469 213.015625 297.238281 C 211.339844 297.746094 209.644531 298.171875 207.925781 298.511719 C 206.207031 298.851562 204.476562 299.109375 202.734375 299.28125 C 200.992188 299.449219 199.246094 299.535156 197.496094 299.535156 C 195.742188 299.535156 193.996094 299.449219 192.253906 299.28125 C 190.511719 299.109375 188.78125 298.851562 187.0625 298.511719 C 185.347656 298.171875 183.648438 297.746094 181.972656 297.238281 C 180.296875 296.730469 178.648438 296.144531 177.03125 295.472656 C 175.414062 294.804688 173.832031 294.058594 172.285156 293.234375 C 170.742188 292.410156 169.242188 291.515625 167.785156 290.542969 C 166.328125 289.570312 164.921875 288.53125 163.566406 287.421875 C 162.210938 286.3125 160.914062 285.140625 159.675781 283.90625 L 149.488281 273.726562 C 152.972656 274.007812 156.464844 274.117188 159.964844 274.050781 C 183.871094 273.613281 206.804688 264.867188 218.535156 251.742188 L 229.902344 240.371094 L 278.835938 240.40625 Z M 139.289062 180.457031 C 138.820312 180.925781 138.398438 181.4375 138.03125 181.992188 C 137.660156 182.542969 137.351562 183.128906 137.097656 183.742188 C 136.84375 184.355469 136.652344 184.988281 136.523438 185.640625 C 136.390625 186.292969 136.328125 186.953125 136.328125 187.617188 C 136.328125 188.28125 136.390625 188.9375 136.523438 189.589844 C 136.652344 190.242188 136.84375 190.875 137.097656 191.488281 C 137.351562 192.105469 137.660156 192.6875 138.03125 193.242188 C 138.398438 193.792969 138.820312 194.304688 139.289062 194.777344 L 187.269531 244.660156 C 180.511719 247.382812 173.503906 249.09375 166.25 249.796875 L 125.605469 208.421875 C 124.921875 207.738281 124.273438 207.027344 123.660156 206.28125 C 123.050781 205.535156 122.472656 204.761719 121.9375 203.960938 C 121.402344 203.160156 120.90625 202.332031 120.449219 201.484375 C 119.996094 200.632812 119.582031 199.761719 119.210938 198.871094 C 118.84375 197.980469 118.519531 197.074219 118.238281 196.148438 C 117.957031 195.226562 117.722656 194.292969 117.535156 193.347656 C 117.34375 192.402344 117.203125 191.449219 117.109375 190.488281 C 117.015625 189.527344 116.96875 188.566406 116.96875 187.601562 C 116.96875 186.636719 117.015625 185.675781 117.109375 184.714844 C 117.203125 183.757812 117.34375 182.804688 117.535156 181.855469 C 117.722656 180.910156 117.957031 179.976562 118.238281 179.054688 C 118.519531 178.132812 118.84375 177.222656 119.210938 176.332031 C 119.582031 175.441406 119.996094 174.570312 120.449219 173.722656 C 120.90625 172.871094 121.402344 172.046875 121.9375 171.242188 C 122.472656 170.441406 123.050781 169.667969 123.660156 168.921875 C 124.273438 168.179688 124.921875 167.464844 125.605469 166.785156 L 168.0625 123.75 C 175.183594 124.828125 181.925781 127.0625 188.285156 130.453125 Z M 139.289062 180.457031 " fill-opacity="1" fill-rule="nonzero"/></g></svg>